<svg width="49" height="48" viewBox="0 0 354 286" fill="none"
    xmlns="http://www.w3.org/2000/svg">
    <path d="M124.399 286C121.553 286 119.243 283.669 119.243 280.797C119.243 271.764 123.904 267.116 127.651 263.383C130.869 260.178 132.993 258.055 132.993 253.372C132.993 248.689 130.869 246.566 127.651 243.361C123.904 239.629 119.243 234.98 119.243 225.947C119.243 216.915 123.904 212.273 127.651 208.534C130.869 205.329 132.993 203.206 132.993 198.523C132.993 195.651 135.303 193.32 138.149 193.32C140.996 193.32 143.306 195.651 143.306 198.523C143.306 207.549 138.644 212.197 134.897 215.936C131.68 219.142 129.556 221.265 129.556 225.947C129.556 230.63 131.68 232.753 134.897 235.959C138.644 239.691 143.306 244.339 143.306 253.372C143.306 262.405 138.644 267.053 134.897 270.786C131.68 273.991 129.556 276.114 129.556 280.797C129.556 283.669 127.246 286 124.399 286Z" fill="#00C3FF" />
    <path d="M170.125 286C167.279 286 164.969 283.669 164.969 280.797C164.969 271.764 169.63 267.116 173.377 263.383C176.594 260.178 178.719 258.055 178.719 253.372C178.719 248.689 176.594 246.566 173.377 243.361C169.63 239.629 164.969 234.98 164.969 225.947C164.969 216.915 169.63 212.273 173.377 208.534C176.594 205.329 178.719 203.206 178.719 198.523C178.719 195.651 181.029 193.32 183.875 193.32C186.721 193.32 189.031 195.651 189.031 198.523C189.031 207.549 184.37 212.197 180.623 215.936C177.406 219.142 175.281 221.265 175.281 225.947C175.281 230.63 177.406 232.753 180.623 235.959C184.37 239.691 189.031 244.339 189.031 253.372C189.031 262.405 184.37 267.053 180.623 270.786C177.406 273.991 175.281 276.114 175.281 280.797C175.281 283.669 172.971 286 170.125 286Z" fill="#00C3FF" />
    <path d="M215.851 286C213.004 286 210.694 283.669 210.694 280.797C210.694 271.764 215.356 267.116 219.102 263.383C222.32 260.178 224.444 258.055 224.444 253.372C224.444 248.689 222.32 246.566 219.102 243.361C215.356 239.629 210.694 234.98 210.694 225.947C210.694 216.915 215.356 212.273 219.102 208.534C222.32 205.329 224.444 203.206 224.444 198.523C224.444 195.651 226.754 193.32 229.601 193.32C232.447 193.32 234.757 195.651 234.757 198.523C234.757 207.549 230.096 212.197 226.349 215.936C223.131 219.142 221.007 221.265 221.007 225.947C221.007 230.63 223.131 232.753 226.349 235.959C230.096 239.691 234.757 244.339 234.757 253.372C234.757 262.405 230.096 267.053 226.349 270.786C223.131 273.991 221.007 276.114 221.007 280.797C221.007 283.669 218.697 286 215.851 286Z" fill="#00C3FF" />
    <path d="M43.6525 166.547H28.7681C13.4575 166.547 1 153.983 1 138.533V77.4463C1 74.5741 3.31 72.243 6.15625 72.243C9.0025 72.243 11.3125 74.5741 11.3125 77.4463V138.533C11.3125 148.238 19.1431 156.14 28.7681 156.14H43.6525C46.4988 156.14 48.8088 158.472 48.8088 161.344C48.8088 164.216 46.4988 166.547 43.6525 166.547Z" fill="#00C3FF" />
    <path d="M310.347 166.797H325.232C340.683 166.797 353.25 154.119 353.25 138.533V29.0213C353.25 13.4352 340.683 0.75 325.232 0.75H215.314C212.328 0.75 209.908 3.19513 209.908 6.20326C209.908 9.21139 212.328 11.6565 215.314 11.6565H325.232C334.717 11.6565 342.437 19.4445 342.437 29.0213V138.533C342.437 148.102 334.717 155.89 325.232 155.89H310.347C307.361 155.89 304.941 158.336 304.941 161.344C304.941 164.352 307.361 166.797 310.347 166.797Z" fill="#00C3FF" stroke="#00C3FF" stroke-width="0.5" />
    <path d="M0.75 53.1644C0.75 56.1726 3.16979 58.6177 6.15625 58.6177C9.14271 58.6177 11.5625 56.1726 11.5625 53.1644V29.0213C11.5625 19.4445 19.2833 11.6565 28.7681 11.6565H191.252C194.238 11.6565 196.658 9.21139 196.658 6.20326C196.658 3.19513 194.238 0.75 191.252 0.75H28.7681C13.3173 0.75 0.75 13.4352 0.75 29.0213V53.1644Z" fill="#00C3FF" stroke="#00C3FF" stroke-width="0.5" />
    <path d="M63.6244 57.3134H290.376C304.369 57.3134 315.754 45.8215 315.754 31.7062V6.20326C315.754 3.19513 313.334 0.75 310.348 0.75C307.361 0.75 304.941 3.19513 304.941 6.20326V31.7062C304.941 39.8122 298.403 46.4069 290.376 46.4069H63.6244C55.5971 46.4069 49.0588 39.8122 49.0588 31.7062V6.20326C49.0588 3.19513 46.639 0.75 43.6525 0.75C40.6661 0.75 38.2463 3.19513 38.2463 6.20326V31.7062C38.2463 45.8215 49.6311 57.3134 63.6244 57.3134Z" fill="#00C3FF" stroke="#00C3FF" stroke-width="0.5" />
    <path d="M273.635 182.469H298.103C307.841 182.469 315.754 174.481 315.754 164.667V135.848C315.754 121.732 304.369 110.24 290.376 110.24H63.6244C49.6311 110.24 38.2463 121.732 38.2463 135.848V164.667C38.2463 174.481 46.1593 182.469 55.8969 182.469H249.573C252.559 182.469 254.979 180.024 254.979 177.016C254.979 174.008 252.559 171.563 249.573 171.563H55.8969C52.1251 171.563 49.0588 168.471 49.0588 164.667V135.848C49.0588 127.742 55.5971 121.147 63.6244 121.147H290.376C298.403 121.147 304.941 127.742 304.941 135.848V164.667C304.941 168.471 301.868 171.563 298.103 171.563H273.635C270.649 171.563 268.229 174.008 268.229 177.016C268.229 180.024 270.649 182.469 273.635 182.469Z" fill="#00C3FF" stroke="#00C3FF" stroke-width="0.5" />
    <path d="M43.6525 141.301H310.348C313.334 141.301 315.754 138.856 315.754 135.848C315.754 132.84 313.334 130.394 310.348 130.394H43.6525C40.6661 130.394 38.2463 132.84 38.2463 135.848C38.2463 138.856 40.6661 141.301 43.6525 141.301Z" fill="#00C3FF" stroke="#00C3FF" stroke-width="0.5" />
    <path d="M43.6525 162.884H310.348C313.334 162.884 315.754 160.439 315.754 157.431C315.754 154.423 313.334 151.978 310.348 151.978H43.6525C40.6661 151.978 38.2463 154.423 38.2463 157.431C38.2463 160.439 40.6661 162.884 43.6525 162.884Z" fill="#00C3FF" stroke="#00C3FF" stroke-width="0.5" />
    <path d="M142.598 34.4884H211.403C214.389 34.4884 216.809 32.0433 216.809 29.0352C216.809 26.027 214.389 23.5819 211.403 23.5819H142.598C139.611 23.5819 137.191 26.027 137.191 29.0352C137.191 32.0433 139.611 34.4884 142.598 34.4884Z" fill="#00C3FF" stroke="#00C3FF" stroke-width="0.5" />
    <path d="M288.354 104.295C279.809 104.295 272.858 97.2812 272.858 88.6576C272.858 80.0341 279.809 73.0201 288.354 73.0201C296.9 73.0201 303.851 80.0341 303.851 88.6576C303.851 97.2812 296.9 104.295 288.354 104.295ZM288.354 83.4266C285.494 83.4266 283.171 85.7715 283.171 88.6576C283.171 91.5437 285.494 93.8886 288.354 93.8886C291.214 93.8886 293.538 91.5437 293.538 88.6576C293.538 85.7715 291.214 83.4266 288.354 83.4266Z" fill="#00C3FF" />
    <path d="M251.264 104.295C242.718 104.295 235.767 97.2812 235.767 88.6576C235.767 80.0341 242.718 73.0201 251.264 73.0201C259.809 73.0201 266.76 80.0341 266.76 88.6576C266.76 97.2812 259.809 104.295 251.264 104.295ZM251.264 83.4266C248.404 83.4266 246.08 85.7715 246.08 88.6576C246.08 91.5437 248.404 93.8886 251.264 93.8886C254.124 93.8886 256.447 91.5437 256.447 88.6576C256.447 85.7715 254.124 83.4266 251.264 83.4266Z" fill="#00C3FF" />
</svg>