<svg width="48" height="52" viewBox="0 0 48 52" fill="none"
    xmlns="http://www.w3.org/2000/svg">
    <path d="M46.9346 4.546H44.0182C43.5596 4.546 43.1891 4.91765 43.1891 5.3751C43.1891 5.83255 43.5596 6.20421 44.0182 6.20421H46.9346C47.3932 6.20421 47.7637 5.83255 47.7637 5.3751C47.7637 4.9173 47.3932 4.546 46.9346 4.546Z" fill="#00C3FF" stroke="#00C3FF" stroke-width="0.2" />
    <path d="M43.1037 3.99591C42.8707 3.94255 42.6623 3.78945 42.5465 3.55881L42.5465 3.55874C42.3414 3.14938 42.5072 2.65079 42.917 2.44607M43.1037 3.99591L45.8334 0.987873L45.8782 1.07732L45.8334 0.987906L42.917 2.44607M43.1037 3.99591L43.0877 4.01691H43.2892C43.4136 4.01691 43.5406 3.98878 43.6592 3.92916C43.6592 3.92914 43.6592 3.92912 43.6593 3.9291L43.1037 3.99591ZM42.917 2.44607L42.9617 2.53553L42.917 2.44609L42.917 2.44607ZM46.5754 2.47102L46.5755 2.471L46.531 2.3821L46.5754 2.47102Z" fill="#00C3FF" stroke="#00C3FF" stroke-width="0.2" />
    <path d="M46.9451 9.39081C47.1476 8.9896 46.9913 8.50387 46.5996 8.29179L46.5991 8.29101L46.5753 8.27909L43.659 6.82095C43.659 6.82094 43.6589 6.82092 43.6589 6.82091C43.2489 6.61503 42.7509 6.78295 42.5463 7.19136L42.5463 7.19145C42.3416 7.60107 42.5073 8.09928 42.9168 8.304C42.9168 8.304 42.9168 8.304 42.9168 8.304L45.8332 9.76221L45.8333 9.76227C45.9529 9.82185 46.0789 9.84926 46.2031 9.84926C46.5069 9.84926 46.7999 9.68222 46.9451 9.39081Z" fill="#00C3FF" stroke="#00C3FF" stroke-width="0.2" />
    <mask id="path-4-outside-1_3599_1910" maskUnits="userSpaceOnUse" x="0" y="0.608032" width="43" height="49" fill="black">
        <rect fill="white" y="0.608032" width="43" height="49" />
        <path fill-rule="evenodd" clip-rule="evenodd" d="M6.10375 13.2737L4.64553 13.2735V34.4178C4.64553 34.8195 4.97233 35.1469 5.37464 35.1469H9.74928C10.1516 35.1469 10.4784 34.8195 10.4784 34.4178V16.9193C10.4784 15.7133 11.4597 14.732 12.6657 14.732H19.9568C21.1628 14.732 22.1441 15.7133 22.1441 16.9193V21.2939H22.8732H24.3314H36.7262C37.9322 21.2939 38.9135 22.2752 38.9135 23.4812V31.39C38.4395 31.2601 37.9527 31.1611 37.4553 31.0954V23.4812C37.4553 23.0796 37.1285 22.7521 36.7262 22.7521H16.3112C15.9089 22.7521 15.5821 23.0796 15.5821 23.4812V46.8126C15.5821 47.2143 15.9089 47.5418 16.3112 47.5418H26.4959C26.7963 48.0559 27.1372 48.5434 27.5143 49H16.3112C15.1053 49 14.1239 48.0186 14.1239 46.8126V23.4812C14.1239 22.2752 15.1053 21.2939 16.3112 21.2939H18.4986H19.9568H20.6859V16.9193C20.6859 16.5176 20.3591 16.1902 19.9568 16.1902H12.6657C12.2634 16.1902 11.9366 16.5176 11.9366 16.9193V34.4178C11.9366 35.6238 10.9553 36.6052 9.74928 36.6052H5.37464C4.16866 36.6052 3.18732 35.6238 3.18732 34.4178V13.2735L1.72911 13.2737C1.32582 13.2737 1 12.9469 1 12.5446V3.79535C1 2.58937 1.98134 1.60803 3.18732 1.60803H7.56196C8.5108 1.60803 9.31281 2.21898 9.61454 3.06625L29.4354 3.18733C29.4354 2.78502 29.7612 2.45822 30.1645 2.45822H35.9974C36.4007 2.45822 36.7265 2.78502 36.7265 3.18733H39.6429C40.0462 3.18733 40.372 3.51413 40.372 3.91643V4.64554H41.1011C41.5044 4.64554 41.8302 4.97234 41.8302 5.37465C41.8302 5.77696 41.5044 6.10375 41.1011 6.10375H40.372V6.83286C40.372 7.23517 40.0462 7.56197 39.6429 7.56197H36.7265C36.7265 7.96428 36.4007 8.29107 35.9974 8.29107H30.1645C29.7612 8.29107 29.4354 7.96428 29.4354 7.56197L9.61454 7.44089C9.31248 8.28815 8.51113 8.8991 7.56196 8.8991H6.83285V12.5446C6.83285 12.9469 6.50703 13.2737 6.10375 13.2737ZM38.9135 4.64528V6.1035H36.7262V4.64528H38.9135ZM35.268 3.91618V6.8326H30.8934V3.91618H35.268ZM29.4352 6.1035L9.74928 5.98241V4.5242L29.4352 4.64528V6.1035ZM2.45821 3.7951C2.45821 3.39344 2.78501 3.066 3.18732 3.066H7.56196C7.96427 3.066 8.29107 3.39344 8.29107 3.7951V6.71153C8.29107 7.11319 7.96427 7.44064 7.56196 7.44064H6.10375C5.70046 7.44064 5.37464 7.76743 5.37464 8.16974V11.8153H2.45821V3.7951Z" />
    </mask>
    <path fill-rule="evenodd" clip-rule="evenodd" d="M6.10375 13.2737L4.64553 13.2735V34.4178C4.64553 34.8195 4.97233 35.1469 5.37464 35.1469H9.74928C10.1516 35.1469 10.4784 34.8195 10.4784 34.4178V16.9193C10.4784 15.7133 11.4597 14.732 12.6657 14.732H19.9568C21.1628 14.732 22.1441 15.7133 22.1441 16.9193V21.2939H22.8732H24.3314H36.7262C37.9322 21.2939 38.9135 22.2752 38.9135 23.4812V31.39C38.4395 31.2601 37.9527 31.1611 37.4553 31.0954V23.4812C37.4553 23.0796 37.1285 22.7521 36.7262 22.7521H16.3112C15.9089 22.7521 15.5821 23.0796 15.5821 23.4812V46.8126C15.5821 47.2143 15.9089 47.5418 16.3112 47.5418H26.4959C26.7963 48.0559 27.1372 48.5434 27.5143 49H16.3112C15.1053 49 14.1239 48.0186 14.1239 46.8126V23.4812C14.1239 22.2752 15.1053 21.2939 16.3112 21.2939H18.4986H19.9568H20.6859V16.9193C20.6859 16.5176 20.3591 16.1902 19.9568 16.1902H12.6657C12.2634 16.1902 11.9366 16.5176 11.9366 16.9193V34.4178C11.9366 35.6238 10.9553 36.6052 9.74928 36.6052H5.37464C4.16866 36.6052 3.18732 35.6238 3.18732 34.4178V13.2735L1.72911 13.2737C1.32582 13.2737 1 12.9469 1 12.5446V3.79535C1 2.58937 1.98134 1.60803 3.18732 1.60803H7.56196C8.5108 1.60803 9.31281 2.21898 9.61454 3.06625L29.4354 3.18733C29.4354 2.78502 29.7612 2.45822 30.1645 2.45822H35.9974C36.4007 2.45822 36.7265 2.78502 36.7265 3.18733H39.6429C40.0462 3.18733 40.372 3.51413 40.372 3.91643V4.64554H41.1011C41.5044 4.64554 41.8302 4.97234 41.8302 5.37465C41.8302 5.77696 41.5044 6.10375 41.1011 6.10375H40.372V6.83286C40.372 7.23517 40.0462 7.56197 39.6429 7.56197H36.7265C36.7265 7.96428 36.4007 8.29107 35.9974 8.29107H30.1645C29.7612 8.29107 29.4354 7.96428 29.4354 7.56197L9.61454 7.44089C9.31248 8.28815 8.51113 8.8991 7.56196 8.8991H6.83285V12.5446C6.83285 12.9469 6.50703 13.2737 6.10375 13.2737ZM38.9135 4.64528V6.1035H36.7262V4.64528H38.9135ZM35.268 3.91618V6.8326H30.8934V3.91618H35.268ZM29.4352 6.1035L9.74928 5.98241V4.5242L29.4352 4.64528V6.1035ZM2.45821 3.7951C2.45821 3.39344 2.78501 3.066 3.18732 3.066H7.56196C7.96427 3.066 8.29107 3.39344 8.29107 3.7951V6.71153C8.29107 7.11319 7.96427 7.44064 7.56196 7.44064H6.10375C5.70046 7.44064 5.37464 7.76743 5.37464 8.16974V11.8153H2.45821V3.7951Z" fill="#00C3FF" />
    <path d="M22.8732 21.1939H19.9568V21.3939H22.8732V21.1939ZM4.64553 13.2735L4.64557 13.0735L4.44553 13.0735V13.2735H4.64553ZM6.10375 13.2737L6.10371 13.4737H6.10375V13.2737ZM22.1441 21.2939H21.9441V21.4939H22.1441V21.2939ZM38.9135 31.39L38.8607 31.5829L39.1135 31.6521V31.39H38.9135ZM37.4553 31.0954H37.2553V31.2707L37.4291 31.2937L37.4553 31.0954ZM26.4959 47.5418L26.6686 47.4408L26.6107 47.3418H26.4959V47.5418ZM27.5143 49V49.2H27.9389L27.6685 48.8726L27.5143 49ZM20.6859 21.2939V21.4939H20.8859V21.2939H20.6859ZM3.18732 13.2735H3.38732V13.0735L3.18729 13.0735L3.18732 13.2735ZM1.72911 13.2737V13.4737H1.72914L1.72911 13.2737ZM9.61454 3.06625L9.42613 3.13334L9.47316 3.26539L9.61332 3.26624L9.61454 3.06625ZM29.4354 3.18733L29.4342 3.38732L29.6354 3.38855V3.18733H29.4354ZM36.7265 3.18733H36.5265V3.38733H36.7265V3.18733ZM40.372 4.64554H40.172V4.84554H40.372V4.64554ZM40.372 6.10375V5.90375H40.172V6.10375H40.372ZM36.7265 7.56197V7.36197H36.5265V7.56197H36.7265ZM29.4354 7.56197H29.6354V7.36318L29.4366 7.36197L29.4354 7.56197ZM9.61454 7.44089L9.61576 7.24089L9.47382 7.24002L9.42616 7.37372L9.61454 7.44089ZM6.83285 8.8991V8.6991H6.63285V8.8991H6.83285ZM38.9135 6.1035V6.3035H39.1135V6.1035H38.9135ZM38.9135 4.64528H39.1135V4.44528H38.9135V4.64528ZM36.7262 6.1035H36.5262V6.3035H36.7262V6.1035ZM36.7262 4.64528V4.44528H36.5262V4.64528H36.7262ZM35.268 6.8326V7.0326H35.468V6.8326H35.268ZM35.268 3.91618H35.468V3.71618H35.268V3.91618ZM30.8934 6.8326H30.6934V7.0326H30.8934V6.8326ZM30.8934 3.91618V3.71618H30.6934V3.91618H30.8934ZM9.74928 5.98241H9.54928V6.18119L9.74805 6.18241L9.74928 5.98241ZM29.4352 6.1035L29.4339 6.30349L29.6352 6.30473V6.1035H29.4352ZM9.74928 4.5242L9.75051 4.3242L9.54928 4.32297V4.5242H9.74928ZM29.4352 4.64528H29.6352V4.44651L29.4364 4.44529L29.4352 4.64528ZM5.37464 11.8153V12.0153H5.57464V11.8153H5.37464ZM2.45821 11.8153H2.25821V12.0153H2.45821V11.8153ZM4.6455 13.4735L6.10371 13.4737L6.10378 13.0737L4.64557 13.0735L4.6455 13.4735ZM4.84553 34.4178V13.2735H4.44553V34.4178H4.84553ZM5.37464 34.9469C5.0829 34.9469 4.84553 34.7092 4.84553 34.4178H4.44553C4.44553 34.9298 4.86176 35.3469 5.37464 35.3469V34.9469ZM9.74928 34.9469H5.37464V35.3469H9.74928V34.9469ZM10.2784 34.4178C10.2784 34.7092 10.041 34.9469 9.74928 34.9469V35.3469C10.2622 35.3469 10.6784 34.9298 10.6784 34.4178H10.2784ZM10.2784 16.9193V34.4178H10.6784V16.9193H10.2784ZM12.6657 14.532C11.3493 14.532 10.2784 15.6028 10.2784 16.9193H10.6784C10.6784 15.8237 11.5702 14.932 12.6657 14.932V14.532ZM19.9568 14.532H12.6657V14.932H19.9568V14.532ZM22.3441 16.9193C22.3441 15.6028 21.2732 14.532 19.9568 14.532V14.932C21.0523 14.932 21.9441 15.8237 21.9441 16.9193H22.3441ZM22.3441 21.2939V16.9193H21.9441V21.2939H22.3441ZM22.8732 21.0939H22.1441V21.4939H22.8732V21.0939ZM24.3314 21.0939H22.8732V21.4939H24.3314V21.0939ZM36.7262 21.0939H24.3314V21.4939H36.7262V21.0939ZM39.1135 23.4812C39.1135 22.1648 38.0427 21.0939 36.7262 21.0939V21.4939C37.8218 21.4939 38.7135 22.3857 38.7135 23.4812H39.1135ZM39.1135 31.39V23.4812H38.7135V31.39H39.1135ZM37.4291 31.2937C37.9174 31.3582 38.3953 31.4554 38.8607 31.5829L38.9664 31.1971C38.4836 31.0648 37.9879 30.964 37.4815 30.8971L37.4291 31.2937ZM37.2553 23.4812V31.0954H37.6553V23.4812H37.2553ZM36.7262 22.9521C37.018 22.9521 37.2553 23.1899 37.2553 23.4812H37.6553C37.6553 22.9692 37.2391 22.5521 36.7262 22.5521V22.9521ZM16.3112 22.9521H36.7262V22.5521H16.3112V22.9521ZM15.7821 23.4812C15.7821 23.1899 16.0195 22.9521 16.3112 22.9521V22.5521C15.7984 22.5521 15.3821 22.9692 15.3821 23.4812H15.7821ZM15.7821 46.8126V23.4812H15.3821V46.8126H15.7821ZM16.3112 47.3418C16.0195 47.3418 15.7821 47.104 15.7821 46.8126H15.3821C15.3821 47.3246 15.7984 47.7418 16.3112 47.7418V47.3418ZM26.4959 47.3418H16.3112V47.7418H26.4959V47.3418ZM27.6685 48.8726C27.2983 48.4243 26.9635 47.9456 26.6686 47.4408L26.3232 47.6427C26.6291 48.1661 26.9762 48.6625 27.3601 49.1273L27.6685 48.8726ZM16.3112 49.2H27.5143V48.8H16.3112V49.2ZM13.9239 46.8126C13.9239 48.1291 14.9948 49.2 16.3112 49.2V48.8C15.2157 48.8 14.3239 47.9082 14.3239 46.8126H13.9239ZM13.9239 23.4812V46.8126H14.3239V23.4812H13.9239ZM16.3112 21.0939C14.9948 21.0939 13.9239 22.1648 13.9239 23.4812H14.3239C14.3239 22.3857 15.2157 21.4939 16.3112 21.4939V21.0939ZM18.4986 21.0939H16.3112V21.4939H18.4986V21.0939ZM19.9568 21.0939H18.4986V21.4939H19.9568V21.0939ZM20.6859 21.0939H19.9568V21.4939H20.6859V21.0939ZM20.4859 16.9193V21.2939H20.8859V16.9193H20.4859ZM19.9568 16.3902C20.2485 16.3902 20.4859 16.628 20.4859 16.9193H20.8859C20.8859 16.4073 20.4697 15.9902 19.9568 15.9902V16.3902ZM12.6657 16.3902H19.9568V15.9902H12.6657V16.3902ZM12.1366 16.9193C12.1366 16.628 12.374 16.3902 12.6657 16.3902V15.9902C12.1528 15.9902 11.7366 16.4073 11.7366 16.9193H12.1366ZM12.1366 34.4178V16.9193H11.7366V34.4178H12.1366ZM9.74928 36.8052C11.0657 36.8052 12.1366 35.7343 12.1366 34.4178H11.7366C11.7366 35.5134 10.8448 36.4052 9.74928 36.4052V36.8052ZM5.37464 36.8052H9.74928V36.4052H5.37464V36.8052ZM2.98732 34.4178C2.98732 35.7343 4.0582 36.8052 5.37464 36.8052V36.4052C4.27911 36.4052 3.38732 35.5134 3.38732 34.4178H2.98732ZM2.98732 13.2735V34.4178H3.38732V13.2735H2.98732ZM1.72914 13.4737L3.18735 13.4735L3.18729 13.0735L1.72907 13.0737L1.72914 13.4737ZM0.8 12.5446C0.8 13.0572 1.21519 13.4737 1.72911 13.4737V13.0737C1.43645 13.0737 1.2 12.8367 1.2 12.5446H0.8ZM0.8 3.79535V12.5446H1.2V3.79535H0.8ZM3.18732 1.40803C1.87088 1.40803 0.8 2.47891 0.8 3.79535H1.2C1.2 2.69983 2.09179 1.80803 3.18732 1.80803V1.40803ZM7.56196 1.40803H3.18732V1.80803H7.56196V1.40803ZM9.80295 2.99915C9.47426 2.07619 8.59955 1.40803 7.56196 1.40803V1.80803C8.42205 1.80803 9.15135 2.36177 9.42613 3.13334L9.80295 2.99915ZM29.4366 2.98733L9.61576 2.86625L9.61332 3.26624L29.4342 3.38732L29.4366 2.98733ZM30.1645 2.25822C29.6506 2.25822 29.2354 2.67474 29.2354 3.18733H29.6354C29.6354 2.8953 29.8719 2.65822 30.1645 2.65822V2.25822ZM35.9974 2.25822H30.1645V2.65822H35.9974V2.25822ZM36.9265 3.18733C36.9265 2.67474 36.5113 2.25822 35.9974 2.25822V2.65822C36.29 2.65822 36.5265 2.8953 36.5265 3.18733H36.9265ZM39.6429 2.98733H36.7265V3.38733H39.6429V2.98733ZM40.572 3.91643C40.572 3.40384 40.1568 2.98733 39.6429 2.98733V3.38733C39.9356 3.38733 40.172 3.62441 40.172 3.91643H40.572ZM40.572 4.64554V3.91643H40.172V4.64554H40.572ZM41.1011 4.44554H40.372V4.84554H41.1011V4.44554ZM42.0302 5.37465C42.0302 4.86206 41.615 4.44554 41.1011 4.44554V4.84554C41.3938 4.84554 41.6302 5.08262 41.6302 5.37465H42.0302ZM41.1011 6.30375C41.615 6.30375 42.0302 5.88724 42.0302 5.37465H41.6302C41.6302 5.66667 41.3938 5.90375 41.1011 5.90375V6.30375ZM40.372 6.30375H41.1011V5.90375H40.372V6.30375ZM40.572 6.83286V6.10375H40.172V6.83286H40.572ZM39.6429 7.76197C40.1568 7.76197 40.572 7.34545 40.572 6.83286H40.172C40.172 7.12489 39.9356 7.36197 39.6429 7.36197V7.76197ZM36.7265 7.76197H39.6429V7.36197H36.7265V7.76197ZM35.9974 8.49107C36.5113 8.49107 36.9265 8.07456 36.9265 7.56197H36.5265C36.5265 7.85399 36.29 8.09107 35.9974 8.09107V8.49107ZM30.1645 8.49107H35.9974V8.09107H30.1645V8.49107ZM29.2354 7.56197C29.2354 8.07456 29.6506 8.49107 30.1645 8.49107V8.09107C29.8719 8.09107 29.6354 7.85399 29.6354 7.56197H29.2354ZM9.61332 7.64088L29.4342 7.76196L29.4366 7.36197L9.61576 7.24089L9.61332 7.64088ZM7.56196 9.0991C8.59995 9.0991 9.47393 8.43088 9.80293 7.50805L9.42616 7.37372C9.15104 8.14542 8.42232 8.6991 7.56196 8.6991V9.0991ZM6.83285 9.0991H7.56196V8.6991H6.83285V9.0991ZM7.03285 12.5446V8.8991H6.63285V12.5446H7.03285ZM6.10375 13.4737C6.61766 13.4737 7.03285 13.0572 7.03285 12.5446H6.63285C6.63285 12.8367 6.3964 13.0737 6.10375 13.0737V13.4737ZM39.1135 6.1035V4.64528H38.7135V6.1035H39.1135ZM36.7262 6.3035H38.9135V5.9035H36.7262V6.3035ZM36.5262 4.64528V6.1035H36.9262V4.64528H36.5262ZM38.9135 4.44528H36.7262V4.84528H38.9135V4.44528ZM35.468 6.8326V3.91618H35.068V6.8326H35.468ZM30.8934 7.0326H35.268V6.6326H30.8934V7.0326ZM30.6934 3.91618V6.8326H31.0934V3.91618H30.6934ZM35.268 3.71618H30.8934V4.11618H35.268V3.71618ZM9.74805 6.18241L29.4339 6.30349L29.4364 5.9035L9.75051 5.78242L9.74805 6.18241ZM9.54928 4.5242V5.98241H9.94928V4.5242H9.54928ZM29.4364 4.44529L9.75051 4.3242L9.74805 4.7242L29.4339 4.84528L29.4364 4.44529ZM29.6352 6.1035V4.64528H29.2352V6.1035H29.6352ZM3.18732 2.866C2.67444 2.866 2.25821 3.2831 2.25821 3.7951H2.65821C2.65821 3.50378 2.89558 3.266 3.18732 3.266V2.866ZM7.56196 2.866H3.18732V3.266H7.56196V2.866ZM8.49107 3.7951C8.49107 3.2831 8.07484 2.866 7.56196 2.866V3.266C7.8537 3.266 8.09107 3.50378 8.09107 3.7951H8.49107ZM8.49107 6.71153V3.7951H8.09107V6.71153H8.49107ZM7.56196 7.64064C8.07484 7.64064 8.49107 7.22353 8.49107 6.71153H8.09107C8.09107 7.00285 7.8537 7.24064 7.56196 7.24064V7.64064ZM6.10375 7.64064H7.56196V7.24064H6.10375V7.64064ZM5.57464 8.16974C5.57464 7.87772 5.81109 7.64064 6.10375 7.64064V7.24064C5.58983 7.24064 5.17464 7.65715 5.17464 8.16974H5.57464ZM5.57464 11.8153V8.16974H5.17464V11.8153H5.57464ZM2.45821 12.0153H5.37464V11.6153H2.45821V12.0153ZM2.25821 3.7951V11.8153H2.65821V3.7951H2.25821Z" fill="#00C3FF" mask="url(#path-4-outside-1_3599_1910)" />
    <path d="M36.0001 32C33.4122 31.999 30.9256 33.0045 29.0664 34.8046C28.9572 34.8667 28.8669 34.9571 28.8047 35.0663C26.3535 37.6044 25.4229 41.247 26.356 44.6496C27.289 48.0523 29.9476 50.7111 33.3504 51.6441C36.7532 52.5771 40.3957 51.6465 42.9337 49.1953C43.0429 49.1331 43.1332 49.0428 43.1953 48.9336C45.0229 47.0411 46.0305 44.5043 45.9993 41.8735C45.968 39.2429 44.9004 36.7306 43.0285 34.882C41.1566 33.0335 38.631 31.9979 36.0001 32ZM36.0001 50.4616C33.8449 50.463 31.7701 49.6412 30.2003 48.1642C28.6306 46.6872 27.6838 44.6666 27.554 42.5151C27.4238 40.3636 28.1203 38.2438 29.5011 36.5886L32.2404 39.3279C32.1913 39.3973 32.1446 39.4684 32.0992 39.5409L31.3259 39.2184C30.9341 39.0549 30.4832 39.24 30.3197 39.6322C30.1563 40.0244 30.3417 40.4746 30.7339 40.638L31.5072 40.9605C31.3489 41.6373 31.3469 42.3417 31.5024 43.0196L30.7281 43.3382C30.5388 43.4155 30.3884 43.5649 30.3094 43.7534C30.2308 43.9419 30.2301 44.1538 30.3077 44.3427C30.3857 44.5319 30.5351 44.682 30.7239 44.7606C30.9125 44.8389 31.1243 44.8393 31.3132 44.761L32.0879 44.4423C32.4547 45.033 32.9516 45.532 33.5405 45.9011L33.218 46.6745C33.0546 47.0663 33.24 47.5168 33.6322 47.6803C34.0244 47.8437 34.4746 47.6583 34.638 47.2665L34.9605 46.4931C35.6366 46.6583 36.3427 46.6597 37.0195 46.4979L37.3382 47.272C37.5003 47.6638 37.9491 47.8506 38.3416 47.6892C38.7338 47.5278 38.9216 47.0793 38.7609 46.6868L38.4422 45.9121C38.5205 45.8633 38.5971 45.8125 38.672 45.7596L41.4113 48.499C39.8938 49.7685 37.9785 50.4634 36.0001 50.4616ZM37.5605 44.6484C37.4355 44.7229 37.3054 44.7889 37.1711 44.8452C36.4167 45.156 35.5698 45.1539 34.8164 44.84C34.0633 44.5262 33.4658 43.9259 33.155 43.1715C32.8422 42.4173 32.8439 41.5691 33.1602 40.8164C33.2155 40.6866 33.2794 40.5605 33.3518 40.4393L37.5605 44.6484ZM34.4397 39.352C34.5647 39.2775 34.6948 39.2112 34.8291 39.1549C35.5836 38.8441 36.4308 38.8462 37.1838 39.1601C37.9373 39.4739 38.5348 40.0745 38.8452 40.829C39.156 41.5835 39.1539 42.4307 38.84 43.1841C38.7847 43.3136 38.7209 43.4396 38.6484 43.5608L34.4397 39.352ZM42.4991 47.4115L39.7597 44.6721C39.8089 44.6028 39.8556 44.5317 39.9009 44.4592L40.6742 44.7817C41.0661 44.9452 41.517 44.7601 41.6804 44.3679C41.8438 43.9757 41.6584 43.5255 41.2662 43.3621L40.4929 43.0396C40.6512 42.3628 40.6533 41.6584 40.4977 40.9805L41.2721 40.6618C41.6639 40.4998 41.8507 40.0509 41.6893 39.6584C41.5279 39.2663 41.0794 39.0784 40.6869 39.2391L39.9122 39.5578C39.5455 38.9671 39.0486 38.4681 38.4597 38.099L38.7821 37.3256C38.9456 36.9338 38.7601 36.4832 38.368 36.3198C37.9758 36.1564 37.5256 36.3418 37.3622 36.734L37.0397 37.5073C36.3629 37.349 35.6585 37.347 34.9806 37.5025L34.662 36.7281C34.5847 36.5393 34.4353 36.3885 34.2468 36.3095C34.0583 36.2309 33.8464 36.2302 33.6575 36.3078C33.4683 36.3858 33.3182 36.5351 33.2396 36.724C33.1613 36.9125 33.1609 37.1248 33.2392 37.3133L33.5579 38.088C33.4796 38.1368 33.403 38.1876 33.3282 38.2405L30.5888 35.5012C32.7698 33.6818 35.7187 33.0791 38.4387 33.896C41.1588 34.7134 43.2869 36.8415 44.1039 39.5616C44.9212 42.2817 44.3185 45.2305 42.4991 47.4115Z" fill="#00C3FF" />
    <path d="M34.3673 42.0889C34.5627 42.5632 33.8515 42.8561 33.6561 42.3818C33.4611 41.9076 34.1722 41.615 34.3673 42.0889Z" fill="#00C3FF" />
    <path d="M36.3193 39.8974C36.5144 40.3716 35.8032 40.6645 35.6081 40.1903C35.4127 39.716 36.1243 39.4231 36.3193 39.8974Z" fill="#00C3FF" />
    <path d="M37.8049 40.322C37.9999 40.7962 37.2887 41.0888 37.0937 40.6145C36.8983 40.1406 37.6098 39.8477 37.8049 40.322Z" fill="#00C3FF" />
    <path d="M35.6393 43.3962C35.8343 43.8704 35.1231 44.1633 34.9277 43.6891C34.7327 43.2149 35.4439 42.9219 35.6393 43.3962Z" fill="#00C3FF" />
    <path d="M38.776 42.4531C38.9711 42.9273 38.2599 43.2199 38.0648 42.7456C37.8694 42.2714 38.581 41.9788 38.776 42.4531Z" fill="#00C3FF" />
</svg>