<svg width="27" height="27" viewBox="0 0 27 27" fill="none"
    xmlns="http://www.w3.org/2000/svg">
    <g clip-path="url(#clip0_3321_10912)">
        <path d="M26.1752 13.2961C26.1752 6.18063 20.4101 0.415527 13.2946 0.415527C6.17916 0.415527 0.414062 6.18063 0.414062 13.2961C0.414062 19.725 5.12431 25.0538 11.2821 26.0209V17.0195H8.00997V13.2961H11.2821V10.4582C11.2821 7.23029 13.2038 5.44727 16.1471 5.44727C17.5567 5.44727 19.0307 5.69865 19.0307 5.69865V8.86685H17.406C15.8064 8.86685 15.3072 9.85991 15.3072 10.8784V13.2961H18.8795L18.3082 17.0195H15.3072V26.0209C21.465 25.0538 26.1752 19.725 26.1752 13.2961Z" fill="white" />
    </g>
    <defs>
        <clipPath id="clip0_3321_10912">
            <rect width="26.5922" height="26.5922" fill="white" />
        </clipPath>
    </defs>
</svg>