<svg width="103" height="120" viewBox="0 0 103 120" fill="none"
    xmlns="http://www.w3.org/2000/svg">
    <g clip-path="url(#clip0_543_1820)">
        <path d="M27.7006 1.32581H74.2031C78.8952 1.32581 82.7006 5.10755 82.7006 9.77061V104.693C82.7006 109.356 78.8952 113.138 74.2031 113.138H27.7006C23.0085 113.138 19.2031 109.356 19.2031 104.693V9.77061C19.2031 5.10755 23.0085 1.32581 27.7006 1.32581V1.32581Z" fill="#F0F0F0" />
        <path d="M55.4214 8.22131H46.4844C45.779 8.22131 45.2065 7.6524 45.2065 6.95141C45.2065 6.25043 45.779 5.68152 46.4844 5.68152H55.4214C56.1268 5.68152 56.6993 6.25043 56.6993 6.95141C56.6993 7.6524 56.1268 8.22131 55.4214 8.22131Z" fill="#E5E5E5" />
        <path d="M61.3838 8.22131C62.0895 8.22131 62.6616 7.65276 62.6616 6.95141C62.6616 6.25007 62.0895 5.68152 61.3838 5.68152C60.6781 5.68152 60.106 6.25007 60.106 6.95141C60.106 7.65276 60.6781 8.22131 61.3838 8.22131Z" fill="#E5E5E5" />
        <path d="M10 11C10 8.79086 11.7909 7 14 7H38C40.2091 7 42 8.79086 42 11V36C42 38.2091 40.2091 40 38 40H14C11.7909 40 10 38.2091 10 36V11Z" fill="#00C1FF" />
        <path d="M62.8789 18C62.8789 15.7909 64.6698 14 66.8789 14H83.1213C85.3305 14 87.1213 15.7909 87.1213 18V35C87.1213 37.2091 85.3305 39 83.1213 39H66.8789C64.6698 39 62.8789 37.2091 62.8789 35V18Z" fill="#00C1FF" />
        <path d="M35.8789 62C35.8789 59.7909 37.6698 58 39.8789 58H52.2425C54.4517 58 56.2425 59.7909 56.2425 62V75C56.2425 77.2091 54.4517 79 52.2425 79H39.8789C37.6698 79 35.8789 77.2091 35.8789 75V62Z" fill="#00C1FF" />
        <path d="M65.8789 64C65.8789 61.7909 67.6698 60 69.8789 60H92.9999C95.2091 60 96.9999 61.7909 96.9999 64V88.0936C96.9999 90.3027 95.2091 92.0936 92.9999 92.0936H69.8789C67.6698 92.0936 65.8789 90.3027 65.8789 88.0936V64Z" fill="#00C1FF" />
        <path d="M6.87891 90C6.87891 87.7909 8.66977 86 10.8789 86H27C29.2091 86 31 87.7909 31 90V106.875C31 109.084 29.2091 110.875 27 110.875H10.8789C8.66977 110.875 6.87891 109.084 6.87891 106.875V90Z" fill="#00C1FF" />
        <path d="M50.8789 103C50.8789 101.895 51.7743 101 52.8789 101H61C62.1046 101 63 101.895 63 103V111.5C63 112.604 62.1046 113.5 61 113.5H52.8789C51.7743 113.5 50.8789 112.604 50.8789 111.5V103Z" fill="#00C1FF" />
        <path d="M8.82277 6.90621C8.92101 6.85213 9.07871 6.85139 9.17838 6.90621L11.0059 7.91311C11.3953 8.12754 11.6506 7.9325 11.5762 7.47902L11.2273 5.34701C11.2085 5.23252 11.2565 5.07477 11.3373 4.99273L12.816 3.48275C13.131 3.16092 13.0328 2.84617 12.5982 2.78016L10.5549 2.46914C10.4449 2.45236 10.3168 2.35577 10.2669 2.24986L9.35316 0.309901C9.15844 -0.103673 8.84235 -0.102927 8.64799 0.309901L7.73422 2.24986C7.6851 2.35428 7.55802 2.45199 7.4466 2.46914L5.40299 2.78016C4.96765 2.84654 4.87047 3.16129 5.18514 3.48275L6.66383 4.99273C6.74321 5.07403 6.79269 5.23103 6.77382 5.34701L6.42497 7.47902C6.35058 7.93325 6.60652 8.12754 6.99559 7.91311L8.82312 6.90621H8.82277Z" fill="#FFD03E" />
        <path d="M3.82277 51.9062C3.92101 51.8521 4.07871 51.8514 4.17838 51.9062L6.00591 52.9131C6.39534 53.1275 6.65057 52.9325 6.57617 52.479L6.22732 50.347C6.20846 50.2325 6.25651 50.0748 6.33732 49.9927L7.816 48.4828C8.13103 48.1609 8.03279 47.8462 7.59815 47.7802L5.5549 47.4691C5.44491 47.4524 5.31676 47.3558 5.26692 47.2499L4.35316 45.3099C4.15844 44.8963 3.84235 44.8971 3.64799 45.3099L2.73422 47.2499C2.6851 47.3543 2.55802 47.452 2.4466 47.4691L0.402994 47.7802C-0.0323538 47.8465 -0.129533 48.1613 0.185142 48.4828L1.66383 49.9927C1.74321 50.074 1.79269 50.231 1.77382 50.347L1.42497 52.479C1.35058 52.9332 1.60652 53.1275 1.99559 52.9131L3.82312 51.9062H3.82277Z" fill="#FF525F" />
        <path d="M98.8228 30.9062C98.921 30.8521 99.0787 30.8514 99.1784 30.9062L101.006 31.9131C101.395 32.1275 101.651 31.9325 101.576 31.479L101.227 29.347C101.208 29.2325 101.257 29.0748 101.337 28.9927L102.816 27.4828C103.131 27.1609 103.033 26.8462 102.598 26.7802L100.555 26.4691C100.445 26.4524 100.317 26.3558 100.267 26.2499L99.3532 24.3099C99.1584 23.8963 98.8423 23.8971 98.648 24.3099L97.7342 26.2499C97.6851 26.3543 97.558 26.452 97.4466 26.4691L95.403 26.7802C94.9676 26.8465 94.8705 27.1613 95.1851 27.4828L96.6638 28.9927C96.7432 29.074 96.7927 29.231 96.7738 29.347L96.425 31.479C96.3506 31.9332 96.6065 32.1275 96.9956 31.9131L98.8231 30.9062H98.8228Z" fill="#9B4CBA" />
        <path d="M92.8228 108.906C92.921 108.852 93.0787 108.851 93.1784 108.906L95.0059 109.913C95.3953 110.128 95.6506 109.933 95.5762 109.479L95.2273 107.347C95.2085 107.233 95.2565 107.075 95.3373 106.993L96.816 105.483C97.131 105.161 97.0328 104.846 96.5982 104.78L94.5549 104.469C94.4449 104.452 94.3168 104.356 94.2669 104.25L93.3532 102.31C93.1584 101.896 92.8423 101.897 92.648 102.31L91.7342 104.25C91.6851 104.354 91.558 104.452 91.4466 104.469L89.403 104.78C88.9676 104.847 88.8705 105.161 89.1851 105.483L90.6638 106.993C90.7432 107.074 90.7927 107.231 90.7738 107.347L90.425 109.479C90.3506 109.933 90.6065 110.128 90.9956 109.913L92.8231 108.906H92.8228Z" fill="#00A334" />
    </g>
    <defs>
        <clipPath id="clip0_543_1820">
            <rect width="103" height="120" fill="white" />
        </clipPath>
    </defs>
</svg>