<svg width="51" height="50" viewBox="0 0 51 50" fill="none"
    xmlns="http://www.w3.org/2000/svg">
    <path d="M7.94304 22.9303C7.72807 22.9307 7.51201 22.9428 7.29448 22.9681L7.94304 22.9303ZM7.94304 22.9303V23.1303C7.94316 23.1303 7.94327 23.1303 7.94338 23.1303L7.94304 22.9303ZM6.9946 12.25V21.2917C3.8981 21.6979 1.33674 24.1996 0.880258 27.2826L0.880255 27.2826C0.466321 30.0801 1.67617 32.7785 3.98723 34.309V42.9326C3.98723 44.2837 5.08608 45.3826 6.43723 45.3826H8.52089V47.2641C8.52089 48.3319 9.38899 49.2 10.4568 49.2H13.1052C14.1729 49.2 15.0411 48.3319 15.0411 47.2641V45.3826H36.4586V47.2641C36.4586 48.3319 37.3267 49.2 38.3945 49.2H41.0429C42.1106 49.2 42.9788 48.3319 42.9788 47.2641V45.3826H45.0624C46.4136 45.3826 47.5124 44.2837 47.5124 42.9326V34.3163C49.4919 33.0025 50.6999 30.772 50.6999 28.3677C50.6999 26.3256 49.8244 24.3779 48.2969 23.0237L48.237 22.9706L48.236 22.9706C47.1801 22.0559 45.8803 21.4846 44.5121 21.3007V12.25C44.5121 5.93592 39.3762 0.8 33.0621 0.8H18.4446C12.1305 0.8 6.9946 5.93592 6.9946 12.25ZM18.4308 2.69957L18.4312 2.69963H18.4442H33.0617C38.3273 2.69963 42.6117 6.98408 42.6117 12.2496V21.2922C39.4159 21.7133 36.8412 24.3198 36.4731 27.5219C36.3751 28.371 36.4405 29.2119 36.6353 30.0196H14.8749C15.0038 29.4811 15.0739 28.9269 15.0739 28.3673C15.0739 26.3313 14.203 24.3873 12.683 23.0339C11.6168 22.0834 10.2928 21.4874 8.89373 21.2988V12.2496C8.89373 6.98832 13.1712 2.70657 18.4308 2.69957ZM42.6886 21.2825L42.7121 21.4744H42.8117L42.7896 21.2757C42.7867 21.276 42.7837 21.2763 42.7803 21.2765C42.7738 21.2769 42.7658 21.2773 42.754 21.2778L42.753 21.2778C42.7373 21.2785 42.7138 21.2794 42.689 21.2825C42.6888 21.2825 42.6887 21.2825 42.6886 21.2825ZM37.3514 31.9199C38.154 33.5446 38.6228 35.1361 38.7415 36.6652H12.7606C12.8715 34.9946 13.3399 33.3698 14.1332 31.9199H37.3514ZM5.39799 32.9454C3.4698 31.8745 2.43391 29.7626 2.75945 27.5618C3.09694 25.2834 5.01463 23.4326 7.31742 23.1667L7.31756 23.1667C7.52357 23.1428 7.72841 23.1311 7.93248 23.1304C7.93623 23.1306 7.94012 23.1307 7.94414 23.1307C7.95034 23.1307 7.95607 23.1304 7.96122 23.13C9.243 23.1323 10.4518 23.5909 11.4197 24.4533L11.4198 24.4533C12.5351 25.4466 13.1743 26.8739 13.1743 28.3682C13.1743 29.2624 12.9456 30.1458 12.5134 30.9214L12.5133 30.9215C11.4147 32.8941 10.8342 35.1476 10.8342 37.4378V37.6158C10.8342 38.1408 11.2592 38.5658 11.7842 38.5658H39.7217C40.2467 38.5658 40.6717 38.1408 40.6717 37.6158V37.451C40.6717 35.2794 40.074 33.0296 38.9048 30.7659C38.4276 29.8418 38.2389 28.7956 38.3604 27.74C38.6325 25.3786 40.5491 23.4552 42.9156 23.1703C44.443 22.9866 45.9019 23.4403 47.0356 24.4456C48.1566 25.4396 48.7993 26.869 48.7993 28.3683C48.7993 30.2747 47.7656 32.0313 46.1017 32.9518C45.799 33.1191 45.6119 33.4382 45.6119 33.7831V42.9333C45.6119 43.2366 45.3652 43.4833 45.0619 43.4833H6.43687C6.13351 43.4833 5.88687 43.2366 5.88687 42.9333V33.7758C5.88687 33.4308 5.69962 33.1126 5.39799 32.9454ZM13.1407 47.2643C13.1407 47.2842 13.1248 47.3002 13.1049 47.3002H10.4564C10.4365 47.3002 10.4206 47.2842 10.4206 47.2643V45.3828H13.1407L13.1407 47.2643ZM41.0782 47.2643C41.0782 47.2842 41.0623 47.3002 41.0424 47.3002H38.394C38.374 47.3002 38.3581 47.2842 38.3581 47.2643V45.3828H41.0782L41.0782 47.2643Z" fill="#00C3FF" stroke="#00C3FF" stroke-width="0.4" />
    <path d="M25.8008 18.8323C27.4639 18.8323 28.8169 17.4793 28.8169 15.8162C28.8169 14.153 27.4639 12.8 25.8008 12.8C24.1446 12.8 22.8 14.1541 22.8 15.8162C22.8 17.4782 24.1446 18.8323 25.8008 18.8323ZM25.8008 14.7C26.4162 14.7 26.9169 15.2008 26.9169 15.8162C26.9169 16.4315 26.4161 16.9323 25.8008 16.9323C25.1964 16.9323 24.7 16.4337 24.7 15.8162C24.7 15.1986 25.1964 14.7 25.8008 14.7Z" fill="#00C3FF" stroke="#00C3FF" stroke-width="0.4" />
</svg>