<svg width="108" height="116" viewBox="0 0 108 116" fill="none"
    xmlns="http://www.w3.org/2000/svg">
    <g clip-path="url(#clip0_543_1868)">
        <path d="M80 45C80 42.7909 81.7909 41 84 41H97C99.2091 41 101 42.7909 101 45V113H80V45Z" fill="#00CBFE" />
        <path d="M43 68C43 65.7909 44.7909 64 47 64H60C62.2091 64 64 65.7909 64 68V113H43V68Z" fill="#00A334" />
        <path d="M7 88C7 85.7909 8.79086 84 11 84H24C26.2091 84 28 85.7909 28 88V113H7V88Z" fill="#FF525F" />
        <path d="M106.165 112.349H1.83542C0.821747 112.349 0 113.167 0 114.175C0 115.183 0.821747 116 1.83542 116H106.165C107.178 116 108 115.183 108 114.175C108 113.167 107.178 112.349 106.165 112.349Z" fill="#DEDEDE" />
        <path d="M89.8118 32.035C90.1925 31.839 90.8036 31.8363 91.1898 32.035L98.2715 35.685C99.7805 36.4623 100.77 35.7553 100.481 34.1115L99.1295 26.3829C99.0564 25.9679 99.2426 25.396 99.5557 25.0986L105.286 19.625C106.506 18.4583 106.126 17.3174 104.441 17.0781L96.5238 15.9506C96.0976 15.8898 95.601 15.5397 95.4079 15.1557L91.8671 8.12339C91.1126 6.62418 89.8877 6.62689 89.1345 8.12339L85.5937 15.1557C85.4033 15.5343 84.9109 15.8884 84.4792 15.9506L76.5602 17.0781C74.8732 17.3187 74.4967 18.4597 75.716 19.625L81.4459 25.0986C81.7535 25.3933 81.9453 25.9625 81.8722 26.3829L80.5204 34.1115C80.2321 35.758 81.2239 36.4623 82.7315 35.685L89.8132 32.035H89.8118Z" fill="#FFD03E" />
    </g>
    <defs>
        <clipPath id="clip0_543_1868">
            <rect width="108" height="116" fill="white" />
        </clipPath>
    </defs>
</svg>