<svg width="49" height="50" viewBox="0 0 338 338" fill="none"
    xmlns="http://www.w3.org/2000/svg">
    <mask id="path-1-outside-1_547_932" maskUnits="userSpaceOnUse" x="10.0908" y="3.94141" width="318" height="330" fill="black">
        <rect fill="white" x="10.0908" y="3.94141" width="318" height="330" />
        <path d="M165.034 104.695C151.884 104.695 139.029 108.594 128.096 115.9C117.162 123.206 108.64 133.59 103.608 145.739C98.5761 157.887 97.2596 171.256 99.8252 184.153C102.391 197.05 108.723 208.897 118.022 218.195C127.32 227.493 139.167 233.825 152.065 236.39C164.962 238.955 178.33 237.638 190.479 232.606C202.628 227.573 213.011 219.051 220.316 208.117C227.622 197.183 231.521 184.328 231.52 171.179C231.5 153.552 224.488 136.653 212.024 124.189C199.56 111.725 182.661 104.714 165.034 104.695ZM165.034 228.425C153.712 228.425 142.645 225.067 133.231 218.777C123.817 212.487 116.48 203.547 112.147 193.087C107.815 182.627 106.681 171.118 108.889 160.013C111.098 148.909 116.55 138.709 124.555 130.703C132.561 122.698 142.761 117.246 153.865 115.037C164.969 112.828 176.479 113.961 186.939 118.293C197.399 122.626 206.339 129.962 212.63 139.376C218.92 148.789 222.278 159.857 222.278 171.179C222.261 186.356 216.225 200.907 205.493 211.639C194.762 222.371 180.211 228.407 165.034 228.425ZM321.52 294.151L265.195 237.827C263.298 235.934 260.931 234.582 258.337 233.912C255.743 233.241 253.017 233.275 250.441 234.012L235.902 219.472C246.918 203.327 252.088 183.903 250.555 164.418C249.023 144.933 240.88 126.557 227.476 112.332C214.071 98.1079 196.21 88.8897 176.85 86.2045C157.49 83.5194 137.794 87.5285 121.024 97.5678V56.3892C125.487 55.8521 129.599 53.7 132.583 50.3392C135.568 46.9783 137.219 42.6413 137.225 38.1465V24.3142C137.219 19.4428 135.281 14.7728 131.836 11.3285C128.391 7.88416 123.721 5.94682 118.849 5.94141H30.4662C25.5949 5.94682 20.9245 7.88418 17.4797 11.3285C14.0349 14.7728 12.0969 19.4429 12.0908 24.3142V38.1465C12.0966 42.6413 13.7478 46.9786 16.7325 50.3395C19.7172 53.7003 23.829 55.8523 28.2917 56.3892V285.69C28.3379 297.957 33.2434 309.705 41.9337 318.363C50.6241 327.021 62.3911 331.882 74.6581 331.882C86.925 331.882 98.692 327.021 107.382 318.363C116.073 309.705 120.978 297.957 121.024 285.69V244.793C135.063 253.205 151.218 257.418 167.577 256.931C183.936 256.445 199.812 251.28 213.326 242.048L227.867 256.59C227.486 257.931 227.292 259.318 227.29 260.712C227.283 262.686 227.667 264.642 228.421 266.466C229.175 268.291 230.282 269.947 231.681 271.341L288.006 327.667C290.827 330.48 294.649 332.061 298.634 332.061C302.619 332.061 306.441 330.48 309.263 327.667L321.52 315.409C324.331 312.586 325.909 308.765 325.909 304.781C325.909 300.797 324.331 296.975 321.52 294.152V294.151ZM79.2452 171.179C79.2406 178.425 80.1559 185.644 81.969 192.66H37.5338V161.951H50.0398C51.2654 161.951 52.4408 161.464 53.3074 160.597C54.1741 159.731 54.6609 158.555 54.6609 157.33C54.6609 156.104 54.1741 154.929 53.3074 154.062C52.4408 153.196 51.2654 152.709 50.0398 152.709H37.5338V129.523H66.4348C67.6604 129.523 68.8358 129.036 69.7024 128.169C70.5691 127.303 71.0559 126.127 71.0559 124.902C71.0559 123.676 70.5691 122.501 69.7024 121.634C68.8358 120.767 67.6604 120.28 66.4348 120.28H37.5338V97.0918H50.0398C51.2654 97.0918 52.4408 96.605 53.3074 95.7383C54.1741 94.8717 54.6609 93.6963 54.6609 92.4707C54.6609 91.2451 54.1741 90.0697 53.3074 89.2031C52.4408 88.3365 51.2654 87.8496 50.0398 87.8496H37.5338V56.5226H111.782V103.969C101.638 111.99 93.4415 122.203 87.8066 133.843C82.1716 145.482 79.2447 158.247 79.2452 171.179ZM21.3329 38.1465V24.3142C21.3363 21.8932 22.2997 19.5723 24.0118 17.8606C25.724 16.1489 28.0452 15.1862 30.4662 15.1836H118.849C121.271 15.1862 123.592 16.1493 125.305 17.8615C127.017 19.5738 127.98 21.8953 127.983 24.3169V38.1465C127.98 40.5681 127.017 42.8897 125.305 44.602C123.592 46.3144 121.271 47.2776 118.849 47.2804H30.4662C28.0447 47.2776 25.7231 46.3144 24.0109 44.602C22.2986 42.8896 21.3356 40.568 21.3329 38.1465ZM111.782 285.69C111.741 295.509 107.811 304.911 100.854 311.84C93.896 318.768 84.477 322.658 74.6581 322.658C64.8391 322.658 55.4201 318.768 48.4624 311.84C41.5048 304.911 37.5752 295.509 37.5338 285.69V201.904H84.9383C90.4731 216.242 99.7412 228.84 111.782 238.391V285.69ZM88.4873 171.179C88.4877 156.039 92.9774 141.24 101.389 128.652C109.8 116.064 121.755 106.254 135.742 100.46C149.729 94.6669 165.12 93.1513 179.968 96.1051C194.817 99.0589 208.456 106.349 219.161 117.055C229.866 127.76 237.156 141.399 240.11 156.248C243.063 171.096 241.547 186.487 235.753 200.474C229.96 214.461 220.148 226.416 207.56 234.827C194.973 243.238 180.173 247.727 165.034 247.727C144.739 247.704 125.282 239.632 110.932 225.281C96.5815 210.93 88.5097 191.473 88.4873 171.179ZM230.231 226.871L242.561 239.2L233.055 248.707L220.725 236.377C224.136 233.46 227.314 230.283 230.231 226.873V226.871ZM314.984 308.874L302.728 321.13C301.641 322.214 300.169 322.822 298.635 322.822C297.1 322.822 295.629 322.214 294.542 321.13L238.217 264.805C237.139 263.716 236.534 262.245 236.534 260.712C236.534 259.179 237.139 257.709 238.217 256.619L250.475 244.362C251.562 243.278 253.033 242.669 254.568 242.669C256.103 242.669 257.575 243.278 258.661 244.362L314.986 300.687C316.064 301.777 316.669 303.247 316.669 304.78C316.669 306.313 316.064 307.784 314.986 308.873L314.984 308.874ZM168.973 139.854C168.56 139.181 167.981 138.624 167.291 138.238C166.601 137.852 165.824 137.65 165.034 137.65C164.244 137.65 163.467 137.852 162.777 138.238C162.088 138.624 161.509 139.181 161.095 139.854L147.826 161.483C141.291 172.134 139.692 189.078 148.498 197.885C152.89 202.259 158.836 204.715 165.035 204.715C171.234 204.715 177.18 202.259 181.572 197.885C190.378 189.079 188.778 172.134 182.244 161.483L168.973 139.854ZM175.035 191.35C172.375 193.989 168.781 195.47 165.034 195.47C161.287 195.47 157.692 193.989 155.032 191.35C149.669 185.986 151.081 173.852 155.704 166.316L165.034 151.11L174.363 166.319C178.986 173.852 180.399 185.986 175.035 191.35Z" />
    </mask>
    <path d="M165.034 104.695C151.884 104.695 139.029 108.594 128.096 115.9C117.162 123.206 108.64 133.59 103.608 145.739C98.5761 157.887 97.2596 171.256 99.8252 184.153C102.391 197.05 108.723 208.897 118.022 218.195C127.32 227.493 139.167 233.825 152.065 236.39C164.962 238.955 178.33 237.638 190.479 232.606C202.628 227.573 213.011 219.051 220.316 208.117C227.622 197.183 231.521 184.328 231.52 171.179C231.5 153.552 224.488 136.653 212.024 124.189C199.56 111.725 182.661 104.714 165.034 104.695ZM165.034 228.425C153.712 228.425 142.645 225.067 133.231 218.777C123.817 212.487 116.48 203.547 112.147 193.087C107.815 182.627 106.681 171.118 108.889 160.013C111.098 148.909 116.55 138.709 124.555 130.703C132.561 122.698 142.761 117.246 153.865 115.037C164.969 112.828 176.479 113.961 186.939 118.293C197.399 122.626 206.339 129.962 212.63 139.376C218.92 148.789 222.278 159.857 222.278 171.179C222.261 186.356 216.225 200.907 205.493 211.639C194.762 222.371 180.211 228.407 165.034 228.425ZM321.52 294.151L265.195 237.827C263.298 235.934 260.931 234.582 258.337 233.912C255.743 233.241 253.017 233.275 250.441 234.012L235.902 219.472C246.918 203.327 252.088 183.903 250.555 164.418C249.023 144.933 240.88 126.557 227.476 112.332C214.071 98.1079 196.21 88.8897 176.85 86.2045C157.49 83.5194 137.794 87.5285 121.024 97.5678V56.3892C125.487 55.8521 129.599 53.7 132.583 50.3392C135.568 46.9783 137.219 42.6413 137.225 38.1465V24.3142C137.219 19.4428 135.281 14.7728 131.836 11.3285C128.391 7.88416 123.721 5.94682 118.849 5.94141H30.4662C25.5949 5.94682 20.9245 7.88418 17.4797 11.3285C14.0349 14.7728 12.0969 19.4429 12.0908 24.3142V38.1465C12.0966 42.6413 13.7478 46.9786 16.7325 50.3395C19.7172 53.7003 23.829 55.8523 28.2917 56.3892V285.69C28.3379 297.957 33.2434 309.705 41.9337 318.363C50.6241 327.021 62.3911 331.882 74.6581 331.882C86.925 331.882 98.692 327.021 107.382 318.363C116.073 309.705 120.978 297.957 121.024 285.69V244.793C135.063 253.205 151.218 257.418 167.577 256.931C183.936 256.445 199.812 251.28 213.326 242.048L227.867 256.59C227.486 257.931 227.292 259.318 227.29 260.712C227.283 262.686 227.667 264.642 228.421 266.466C229.175 268.291 230.282 269.947 231.681 271.341L288.006 327.667C290.827 330.48 294.649 332.061 298.634 332.061C302.619 332.061 306.441 330.48 309.263 327.667L321.52 315.409C324.331 312.586 325.909 308.765 325.909 304.781C325.909 300.797 324.331 296.975 321.52 294.152V294.151ZM79.2452 171.179C79.2406 178.425 80.1559 185.644 81.969 192.66H37.5338V161.951H50.0398C51.2654 161.951 52.4408 161.464 53.3074 160.597C54.1741 159.731 54.6609 158.555 54.6609 157.33C54.6609 156.104 54.1741 154.929 53.3074 154.062C52.4408 153.196 51.2654 152.709 50.0398 152.709H37.5338V129.523H66.4348C67.6604 129.523 68.8358 129.036 69.7024 128.169C70.5691 127.303 71.0559 126.127 71.0559 124.902C71.0559 123.676 70.5691 122.501 69.7024 121.634C68.8358 120.767 67.6604 120.28 66.4348 120.28H37.5338V97.0918H50.0398C51.2654 97.0918 52.4408 96.605 53.3074 95.7383C54.1741 94.8717 54.6609 93.6963 54.6609 92.4707C54.6609 91.2451 54.1741 90.0697 53.3074 89.2031C52.4408 88.3365 51.2654 87.8496 50.0398 87.8496H37.5338V56.5226H111.782V103.969C101.638 111.99 93.4415 122.203 87.8066 133.843C82.1716 145.482 79.2447 158.247 79.2452 171.179ZM21.3329 38.1465V24.3142C21.3363 21.8932 22.2997 19.5723 24.0118 17.8606C25.724 16.1489 28.0452 15.1862 30.4662 15.1836H118.849C121.271 15.1862 123.592 16.1493 125.305 17.8615C127.017 19.5738 127.98 21.8953 127.983 24.3169V38.1465C127.98 40.5681 127.017 42.8897 125.305 44.602C123.592 46.3144 121.271 47.2776 118.849 47.2804H30.4662C28.0447 47.2776 25.7231 46.3144 24.0109 44.602C22.2986 42.8896 21.3356 40.568 21.3329 38.1465ZM111.782 285.69C111.741 295.509 107.811 304.911 100.854 311.84C93.896 318.768 84.477 322.658 74.6581 322.658C64.8391 322.658 55.4201 318.768 48.4624 311.84C41.5048 304.911 37.5752 295.509 37.5338 285.69V201.904H84.9383C90.4731 216.242 99.7412 228.84 111.782 238.391V285.69ZM88.4873 171.179C88.4877 156.039 92.9774 141.24 101.389 128.652C109.8 116.064 121.755 106.254 135.742 100.46C149.729 94.6669 165.12 93.1513 179.968 96.1051C194.817 99.0589 208.456 106.349 219.161 117.055C229.866 127.76 237.156 141.399 240.11 156.248C243.063 171.096 241.547 186.487 235.753 200.474C229.96 214.461 220.148 226.416 207.56 234.827C194.973 243.238 180.173 247.727 165.034 247.727C144.739 247.704 125.282 239.632 110.932 225.281C96.5815 210.93 88.5097 191.473 88.4873 171.179ZM230.231 226.871L242.561 239.2L233.055 248.707L220.725 236.377C224.136 233.46 227.314 230.283 230.231 226.873V226.871ZM314.984 308.874L302.728 321.13C301.641 322.214 300.169 322.822 298.635 322.822C297.1 322.822 295.629 322.214 294.542 321.13L238.217 264.805C237.139 263.716 236.534 262.245 236.534 260.712C236.534 259.179 237.139 257.709 238.217 256.619L250.475 244.362C251.562 243.278 253.033 242.669 254.568 242.669C256.103 242.669 257.575 243.278 258.661 244.362L314.986 300.687C316.064 301.777 316.669 303.247 316.669 304.78C316.669 306.313 316.064 307.784 314.986 308.873L314.984 308.874ZM168.973 139.854C168.56 139.181 167.981 138.624 167.291 138.238C166.601 137.852 165.824 137.65 165.034 137.65C164.244 137.65 163.467 137.852 162.777 138.238C162.088 138.624 161.509 139.181 161.095 139.854L147.826 161.483C141.291 172.134 139.692 189.078 148.498 197.885C152.89 202.259 158.836 204.715 165.035 204.715C171.234 204.715 177.18 202.259 181.572 197.885C190.378 189.079 188.778 172.134 182.244 161.483L168.973 139.854ZM175.035 191.35C172.375 193.989 168.781 195.47 165.034 195.47C161.287 195.47 157.692 193.989 155.032 191.35C149.669 185.986 151.081 173.852 155.704 166.316L165.034 151.11L174.363 166.319C178.986 173.852 180.399 185.986 175.035 191.35Z" fill="#00C3FF" />
    <path d="M165.034 104.695C151.884 104.695 139.029 108.594 128.096 115.9C117.162 123.206 108.64 133.59 103.608 145.739C98.5761 157.887 97.2596 171.256 99.8252 184.153C102.391 197.05 108.723 208.897 118.022 218.195C127.32 227.493 139.167 233.825 152.065 236.39C164.962 238.955 178.33 237.638 190.479 232.606C202.628 227.573 213.011 219.051 220.316 208.117C227.622 197.183 231.521 184.328 231.52 171.179C231.5 153.552 224.488 136.653 212.024 124.189C199.56 111.725 182.661 104.714 165.034 104.695ZM165.034 228.425C153.712 228.425 142.645 225.067 133.231 218.777C123.817 212.487 116.48 203.547 112.147 193.087C107.815 182.627 106.681 171.118 108.889 160.013C111.098 148.909 116.55 138.709 124.555 130.703C132.561 122.698 142.761 117.246 153.865 115.037C164.969 112.828 176.479 113.961 186.939 118.293C197.399 122.626 206.339 129.962 212.63 139.376C218.92 148.789 222.278 159.857 222.278 171.179C222.261 186.356 216.225 200.907 205.493 211.639C194.762 222.371 180.211 228.407 165.034 228.425ZM321.52 294.151L265.195 237.827C263.298 235.934 260.931 234.582 258.337 233.912C255.743 233.241 253.017 233.275 250.441 234.012L235.902 219.472C246.918 203.327 252.088 183.903 250.555 164.418C249.023 144.933 240.88 126.557 227.476 112.332C214.071 98.1079 196.21 88.8897 176.85 86.2045C157.49 83.5194 137.794 87.5285 121.024 97.5678V56.3892C125.487 55.8521 129.599 53.7 132.583 50.3392C135.568 46.9783 137.219 42.6413 137.225 38.1465V24.3142C137.219 19.4428 135.281 14.7728 131.836 11.3285C128.391 7.88416 123.721 5.94682 118.849 5.94141H30.4662C25.5949 5.94682 20.9245 7.88418 17.4797 11.3285C14.0349 14.7728 12.0969 19.4429 12.0908 24.3142V38.1465C12.0966 42.6413 13.7478 46.9786 16.7325 50.3395C19.7172 53.7003 23.829 55.8523 28.2917 56.3892V285.69C28.3379 297.957 33.2434 309.705 41.9337 318.363C50.6241 327.021 62.3911 331.882 74.6581 331.882C86.925 331.882 98.692 327.021 107.382 318.363C116.073 309.705 120.978 297.957 121.024 285.69V244.793C135.063 253.205 151.218 257.418 167.577 256.931C183.936 256.445 199.812 251.28 213.326 242.048L227.867 256.59C227.486 257.931 227.292 259.318 227.29 260.712C227.283 262.686 227.667 264.642 228.421 266.466C229.175 268.291 230.282 269.947 231.681 271.341L288.006 327.667C290.827 330.48 294.649 332.061 298.634 332.061C302.619 332.061 306.441 330.48 309.263 327.667L321.52 315.409C324.331 312.586 325.909 308.765 325.909 304.781C325.909 300.797 324.331 296.975 321.52 294.152V294.151ZM79.2452 171.179C79.2406 178.425 80.1559 185.644 81.969 192.66H37.5338V161.951H50.0398C51.2654 161.951 52.4408 161.464 53.3074 160.597C54.1741 159.731 54.6609 158.555 54.6609 157.33C54.6609 156.104 54.1741 154.929 53.3074 154.062C52.4408 153.196 51.2654 152.709 50.0398 152.709H37.5338V129.523H66.4348C67.6604 129.523 68.8358 129.036 69.7024 128.169C70.5691 127.303 71.0559 126.127 71.0559 124.902C71.0559 123.676 70.5691 122.501 69.7024 121.634C68.8358 120.767 67.6604 120.28 66.4348 120.28H37.5338V97.0918H50.0398C51.2654 97.0918 52.4408 96.605 53.3074 95.7383C54.1741 94.8717 54.6609 93.6963 54.6609 92.4707C54.6609 91.2451 54.1741 90.0697 53.3074 89.2031C52.4408 88.3365 51.2654 87.8496 50.0398 87.8496H37.5338V56.5226H111.782V103.969C101.638 111.99 93.4415 122.203 87.8066 133.843C82.1716 145.482 79.2447 158.247 79.2452 171.179ZM21.3329 38.1465V24.3142C21.3363 21.8932 22.2997 19.5723 24.0118 17.8606C25.724 16.1489 28.0452 15.1862 30.4662 15.1836H118.849C121.271 15.1862 123.592 16.1493 125.305 17.8615C127.017 19.5738 127.98 21.8953 127.983 24.3169V38.1465C127.98 40.5681 127.017 42.8897 125.305 44.602C123.592 46.3144 121.271 47.2776 118.849 47.2804H30.4662C28.0447 47.2776 25.7231 46.3144 24.0109 44.602C22.2986 42.8896 21.3356 40.568 21.3329 38.1465ZM111.782 285.69C111.741 295.509 107.811 304.911 100.854 311.84C93.896 318.768 84.477 322.658 74.6581 322.658C64.8391 322.658 55.4201 318.768 48.4624 311.84C41.5048 304.911 37.5752 295.509 37.5338 285.69V201.904H84.9383C90.4731 216.242 99.7412 228.84 111.782 238.391V285.69ZM88.4873 171.179C88.4877 156.039 92.9774 141.24 101.389 128.652C109.8 116.064 121.755 106.254 135.742 100.46C149.729 94.6669 165.12 93.1513 179.968 96.1051C194.817 99.0589 208.456 106.349 219.161 117.055C229.866 127.76 237.156 141.399 240.11 156.248C243.063 171.096 241.547 186.487 235.753 200.474C229.96 214.461 220.148 226.416 207.56 234.827C194.973 243.238 180.173 247.727 165.034 247.727C144.739 247.704 125.282 239.632 110.932 225.281C96.5815 210.93 88.5097 191.473 88.4873 171.179ZM230.231 226.871L242.561 239.2L233.055 248.707L220.725 236.377C224.136 233.46 227.314 230.283 230.231 226.873V226.871ZM314.984 308.874L302.728 321.13C301.641 322.214 300.169 322.822 298.635 322.822C297.1 322.822 295.629 322.214 294.542 321.13L238.217 264.805C237.139 263.716 236.534 262.245 236.534 260.712C236.534 259.179 237.139 257.709 238.217 256.619L250.475 244.362C251.562 243.278 253.033 242.669 254.568 242.669C256.103 242.669 257.575 243.278 258.661 244.362L314.986 300.687C316.064 301.777 316.669 303.247 316.669 304.78C316.669 306.313 316.064 307.784 314.986 308.873L314.984 308.874ZM168.973 139.854C168.56 139.181 167.981 138.624 167.291 138.238C166.601 137.852 165.824 137.65 165.034 137.65C164.244 137.65 163.467 137.852 162.777 138.238C162.088 138.624 161.509 139.181 161.095 139.854L147.826 161.483C141.291 172.134 139.692 189.078 148.498 197.885C152.89 202.259 158.836 204.715 165.035 204.715C171.234 204.715 177.18 202.259 181.572 197.885C190.378 189.079 188.778 172.134 182.244 161.483L168.973 139.854ZM175.035 191.35C172.375 193.989 168.781 195.47 165.034 195.47C161.287 195.47 157.692 193.989 155.032 191.35C149.669 185.986 151.081 173.852 155.704 166.316L165.034 151.11L174.363 166.319C178.986 173.852 180.399 185.986 175.035 191.35Z" stroke="#00C3FF" stroke-width="2.6" mask="url(#path-1-outside-1_547_932)" />
</svg>