<svg width="43" height="52" viewBox="0 0 43 52" fill="none"
    xmlns="http://www.w3.org/2000/svg">
    <g clip-path="url(#clip0_3599_1890)">
        <path d="M40.6182 25.2695L41.4639 23.9867C42.2206 22.8349 42.3863 21.3829 41.9069 20.086L39.8201 14.447C40.8039 13.2596 41.3447 11.7592 41.3498 10.2078C41.3435 4.57259 36.8398 0.00636319 31.2833 0H23.3439C13.6489 0 5.78852 7.97053 5.78852 17.8029C5.78852 20.5658 6.42222 23.2918 7.64068 25.7646L8.69601 27.9026C9.50037 29.5417 9.92075 31.3464 9.92326 33.1777C9.92075 33.954 9.84169 34.7277 9.6886 35.4888C9.37614 35.1541 8.85663 35.1401 8.52661 35.457C8.45633 35.5244 8.39861 35.6033 8.35595 35.6911L5.8751 40.7231C5.69315 41.0922 5.80358 41.5402 6.13486 41.7794L6.17752 41.8113L5.914 42.0403C3.20227 44.3985 1.17318 47.4592 0.0425545 50.8966C-0.101753 51.3357 0.132904 51.8116 0.565828 51.958C0.649903 51.986 0.737742 52.0013 0.826837 52.0013H26.4635C26.9202 52.0013 27.2904 51.6271 27.2917 51.1639C27.2917 51.0633 27.2741 50.9628 27.239 50.8673C27.1185 50.5441 26.9855 50.2259 26.8449 49.9141L27.9956 47.967C28.6143 46.9922 29.8892 46.702 30.8592 47.3141L31.6924 47.8779C33.7642 49.2804 36.565 48.7153 37.9479 46.6142C38.2754 46.1166 38.5037 45.5566 38.6205 44.9699L39.6369 39.8183C40.2116 39.1464 40.5253 38.286 40.5228 37.3965C40.5228 36.5591 40.3609 35.7293 40.051 34.9543L41.0762 34.6934C42.439 34.346 43.2659 32.9435 42.9233 31.5614C42.9008 31.4685 42.8719 31.3756 42.8393 31.2865L40.6194 25.272L40.6182 25.2695ZM39.6959 10.2091C39.6908 11.259 39.3545 12.281 38.7372 13.1234L36.1082 11.1852C35.4821 7.56711 33.7479 4.23916 31.1516 1.67734H31.2833C35.9275 1.68243 39.6908 5.49907 39.6959 10.2091ZM2.01267 50.3227C3.09812 47.617 4.80472 45.2143 6.99067 43.313L7.56413 42.8141L8.70479 43.64C10.9096 45.2385 13.3603 46.4577 15.9566 47.2467C18.0773 47.8945 20.0599 48.9368 21.8029 50.3227H2.01267ZM24.3202 50.3227C22.0941 48.1477 19.3899 46.5429 16.4309 45.6406C14.0091 44.905 11.7227 43.7686 9.66476 42.277L7.66954 40.8313L9.26948 37.5861L9.91698 38.3751C11.7654 40.6277 14.2211 42.2859 16.9843 43.1463C20.5857 44.284 23.5622 46.8814 25.2086 50.3227H24.3189H24.3202ZM17.4724 41.5427C15.0154 40.7791 12.8307 39.3054 11.1869 37.3023L10.9987 37.0719C11.3325 35.9533 11.5207 34.7952 11.5583 33.6269C13.231 32.2754 14.2964 30.2977 14.5135 28.1406C14.5511 27.7906 14.6202 27.4444 14.7193 27.1059L15.2765 29.3623C15.7131 31.1376 17.4862 32.2168 19.2355 31.774C19.4677 31.7154 19.6935 31.6301 19.9069 31.522L20.257 31.3451L18.9193 33.7173C17.4097 36.3962 18.327 39.8081 20.9685 41.3391C21.0563 41.39 21.1454 41.4384 21.2357 41.4842C23.566 42.6754 25.4809 44.5627 26.7207 46.8916C26.6718 46.9616 26.6191 47.0303 26.5751 47.1042L25.9314 48.1948C23.9926 45.0183 20.9898 42.6563 17.4737 41.5427H17.4724ZM15.7131 22.7039C15.7131 21.7456 16.4799 20.968 17.4248 20.968C17.7636 20.968 18.0936 21.0698 18.3747 21.2594C19.3786 21.9377 20.085 22.9838 20.3435 24.1789L21.3775 28.8978L19.1627 30.0203C18.3659 30.425 17.3972 30.0966 16.9981 29.2885C16.9454 29.1816 16.9052 29.0696 16.8764 28.9538L16.072 25.6882C15.8324 24.7121 15.7119 23.7092 15.7131 22.7026V22.7039ZM38.2842 38.8269C38.1687 38.944 38.0909 39.0929 38.0583 39.2558L36.9954 44.6403C36.688 46.2095 35.1834 47.2276 33.6374 46.9145C33.271 46.8407 32.9234 46.6944 32.6122 46.4844L31.779 45.9206C30.6459 45.1507 29.1852 45.0845 27.9894 45.7475C26.5839 43.2722 24.4946 41.2691 21.9799 39.9837C20.0763 39.0178 19.3045 36.6685 20.2582 34.7379C20.2896 34.6743 20.3235 34.6107 20.3573 34.5496L23.0477 29.7734C23.1494 29.5927 23.182 29.3789 23.1381 29.1752L21.9636 23.8187C21.6122 22.1999 20.6547 20.7835 19.2932 19.8672C17.7473 18.821 15.6567 19.2448 14.6252 20.814C14.2575 21.374 14.0605 22.0319 14.0592 22.7039C14.0592 23.2778 14.0944 23.8518 14.1647 24.4219C13.4444 25.4757 12.9989 26.6974 12.8684 27.9726C12.7417 29.2325 12.2472 30.425 11.4504 31.3998C11.2597 29.9223 10.8293 28.4867 10.1767 27.1517L9.12141 25.0137C5.19498 17.0483 8.37853 7.36221 16.2339 3.38013C18.4412 2.26148 20.8756 1.67861 23.3439 1.67861H28.6494C31.267 3.7301 33.1731 6.57445 34.0917 9.79677C33.399 9.37553 32.6825 8.99501 31.9459 8.65648C30.7438 6.31356 29.0409 4.27352 26.9616 2.68527L25.969 4.02663C27.3055 5.04856 28.4737 6.2792 29.4287 7.67274C24.6414 6.16466 19.4815 6.437 14.8736 8.44014L12.9085 9.29535L13.5598 10.8365L15.5237 9.9813C17.943 8.92756 20.5481 8.38541 23.182 8.38796C24.0679 8.39178 24.9514 8.45668 25.8285 8.5814C25.4182 9.86167 25.6842 11.2654 26.5337 12.2988L29.4914 15.8978C26.471 19.2156 24.7983 23.5693 24.8108 28.0859C24.8171 30.7317 26.0443 33.2235 28.1286 34.8156L31.2557 37.1954C31.725 37.5505 32.2947 37.7426 32.8795 37.7439C33.7566 37.7414 34.5974 37.3888 35.2186 36.7614C36.0631 35.8998 37.1786 35.3666 38.3707 35.2521C38.697 35.9189 38.8664 36.652 38.8664 37.3965C38.8689 37.9335 38.6594 38.4489 38.2842 38.8295V38.8269ZM40.6746 33.0657L38.7447 33.5544C36.9804 33.5811 35.2951 34.3052 34.049 35.5728C33.5898 36.0869 32.8381 36.2027 32.2483 35.8515L29.12 33.4717C27.4523 32.1965 26.4697 30.2022 26.4647 28.0833C26.4534 23.7462 28.1525 19.5859 31.1842 16.5278C31.4866 16.221 31.5092 15.7311 31.2357 15.3976L27.8036 11.2234C27.4736 10.82 27.2917 10.3122 27.2917 9.78786C27.2929 9.47479 27.3594 9.16427 27.4874 8.8792C30.0586 9.46715 32.4855 10.582 34.6162 12.1562L38.1813 14.7855L40.3584 20.6715C40.6508 21.463 40.5504 22.3475 40.0874 23.0513L39.007 24.6943C38.8601 24.9195 38.83 25.2021 38.9241 25.454L41.2933 31.8694C41.4652 32.3377 41.2305 32.8595 40.7675 33.0339C40.7374 33.0453 40.706 33.0555 40.6746 33.0631V33.0657Z" fill="#00C3FF" />
    </g>
    <defs>
        <clipPath id="clip0_3599_1890">
            <rect width="43" height="52" fill="white" />
        </clipPath>
    </defs>
</svg>