<svg width="67" height="50" viewBox="0 0 339 339" fill="none"
    xmlns="http://www.w3.org/2000/svg">
    <path d="M151.194 247.47C144.414 250.86 137.634 252.894 129.498 253.572C126.786 266.454 128.82 279.336 134.244 292.218C130.176 301.71 115.26 301.71 110.514 292.218C115.938 279.336 117.972 266.454 115.26 253.572C85.428 250.182 61.698 226.452 58.308 195.942C45.426 193.23 33.222 195.264 20.34 200.688C10.848 195.942 10.848 181.026 20.34 176.958C33.222 182.382 45.426 184.416 58.308 181.704C61.698 151.194 85.428 127.464 115.26 124.074C117.972 111.192 115.938 98.31 110.514 85.428C114.582 75.936 129.498 75.936 134.244 85.428C128.82 98.31 126.786 111.192 129.498 124.074C136.956 124.752 144.414 127.464 151.194 130.176" stroke="#00C3FF" stroke-width="10" stroke-miterlimit="10" stroke-linecap="round" stroke-linejoin="round" />
    <path d="M84.072 136.278C80.004 124.074 75.936 119.328 64.41 111.192C63.732 101.022 76.614 92.8859 84.75 98.9879C86.106 113.226 88.14 118.65 96.276 128.82" stroke="#00C3FF" stroke-width="10" stroke-miterlimit="10" stroke-linecap="round" stroke-linejoin="round" />
    <path d="M70.512 227.808C58.308 231.876 54.24 236.622 46.104 247.47C35.934 248.148 28.476 235.266 34.578 227.13C48.138 225.774 54.24 223.74 63.732 215.604" stroke="#00C3FF" stroke-width="10" stroke-miterlimit="10" stroke-linecap="round" stroke-linejoin="round" />
    <path d="M63.054 162.72C53.562 154.584 47.46 152.55 33.9 151.194C27.798 142.38 35.256 129.498 45.426 130.854C53.562 142.38 57.63 146.448 69.834 150.516" stroke="#00C3FF" stroke-width="10" stroke-miterlimit="10" stroke-linecap="round" stroke-linejoin="round" />
    <path d="M96.954 248.826C88.14 258.318 86.784 264.42 85.428 278.658C76.614 284.76 63.732 277.302 65.088 266.454C76.614 258.318 80.682 253.572 84.75 241.368" stroke="#00C3FF" stroke-width="10" stroke-miterlimit="10" stroke-linecap="round" stroke-linejoin="round" />
    <path d="M120.006 157.296C125.248 157.296 129.498 153.046 129.498 147.804C129.498 142.562 125.248 138.312 120.006 138.312C114.764 138.312 110.514 142.562 110.514 147.804C110.514 153.046 114.764 157.296 120.006 157.296Z" stroke="#00C3FF" stroke-width="10" stroke-miterlimit="10" stroke-linecap="round" stroke-linejoin="round" />
    <path d="M86.784 191.874C92.0263 191.874 96.276 187.624 96.276 182.382C96.276 177.14 92.0263 172.89 86.784 172.89C81.5417 172.89 77.292 177.14 77.292 182.382C77.292 187.624 81.5417 191.874 86.784 191.874Z" stroke="#00C3FF" stroke-width="10" stroke-miterlimit="10" stroke-linecap="round" stroke-linejoin="round" />
    <path d="M99.666 226.452C103.41 226.452 106.446 223.416 106.446 219.672C106.446 215.927 103.41 212.892 99.666 212.892C95.9215 212.892 92.886 215.927 92.886 219.672C92.886 223.416 95.9215 226.452 99.666 226.452Z" stroke="#00C3FF" stroke-width="10" stroke-miterlimit="10" stroke-linecap="round" stroke-linejoin="round" />
    <path d="M122.718 189.162C126.462 189.162 129.498 186.126 129.498 182.382C129.498 178.637 126.462 175.602 122.718 175.602C118.973 175.602 115.938 178.637 115.938 182.382C115.938 186.126 118.973 189.162 122.718 189.162Z" stroke="#00C3FF" stroke-width="10" stroke-miterlimit="10" stroke-linecap="round" stroke-linejoin="round" />
    <path d="M151.194 226.452C149.16 227.13 147.126 227.808 145.092 227.808C138.312 227.808 132.21 222.384 132.21 214.926C132.21 208.146 137.634 202.044 145.092 202.044C147.126 202.044 149.16 202.722 151.194 203.4" stroke="#00C3FF" stroke-width="10" stroke-miterlimit="10" stroke-linecap="round" stroke-linejoin="round" />
    <path d="M237.878 55.8579V281.238C237.878 304.926 218.24 324.554 194.54 324.554C170.839 324.554 151.202 304.926 151.202 281.238V55.8579" stroke="#00C3FF" stroke-width="10" stroke-miterlimit="10" stroke-linecap="round" stroke-linejoin="round" />
    <path d="M172.89 229.842V280.692C172.89 292.896 182.382 302.388 194.586 302.388" stroke="#00C3FF" stroke-width="10" stroke-miterlimit="10" stroke-linecap="round" stroke-linejoin="round" />
    <path d="M245.436 12.204H144.414C136.956 12.204 130.854 18.306 130.854 25.764V42.036C130.854 49.494 136.956 55.596 144.414 55.596H245.436C252.894 55.596 258.996 49.494 258.996 42.036V25.764C258.996 17.628 252.894 12.204 245.436 12.204Z" stroke="#00C3FF" stroke-width="10" stroke-miterlimit="10" stroke-linecap="round" stroke-linejoin="round" />
    <path d="M151.194 101.7C199.332 122.718 185.772 82.038 237.978 101.7" stroke="#00C3FF" stroke-width="10" stroke-miterlimit="10" stroke-linecap="round" stroke-linejoin="round" />
    <path d="M299.676 147.126C285.438 147.126 273.234 135.6 273.234 120.684V74.58C273.234 60.342 284.76 48.138 299.676 48.138C313.914 48.138 326.118 59.664 326.118 74.58V120.684C326.118 135.6 313.914 147.126 299.676 147.126Z" stroke="#00C3FF" stroke-width="10" stroke-miterlimit="10" stroke-linecap="round" stroke-linejoin="round" />
    <path d="M309.168 145.092V317.304C309.168 322.728 305.1 326.796 299.676 326.796C294.252 326.796 290.184 322.728 290.184 317.304V145.092" stroke="#00C3FF" stroke-width="10" stroke-miterlimit="10" stroke-linecap="round" stroke-linejoin="round" />
    <path d="M326.118 73.902L281.37 55.596" stroke="#00C3FF" stroke-width="10" stroke-miterlimit="10" stroke-linecap="round" stroke-linejoin="round" />
    <path d="M317.982 139.668L273.912 121.362" stroke="#00C3FF" stroke-width="10" stroke-miterlimit="10" stroke-linecap="round" stroke-linejoin="round" />
    <path d="M326.118 120.006L273.912 98.31" stroke="#00C3FF" stroke-width="10" stroke-miterlimit="10" stroke-linecap="round" stroke-linejoin="round" />
    <path d="M326.118 96.954L273.912 75.258" stroke="#00C3FF" stroke-width="10" stroke-miterlimit="10" stroke-linecap="round" stroke-linejoin="round" />
</svg>