<svg width="24" height="24" viewBox="0 0 24 24" fill="none"
    xmlns="http://www.w3.org/2000/svg">
    <path fill-rule="evenodd" clip-rule="evenodd" d="M11.9987 0.333313C5.55605 0.333313 0.332031 5.55654 0.332031 12C0.332031 18.4434 5.55554 23.6666 11.9987 23.6666C18.4424 23.6666 23.6654 18.4434 23.6654 12C23.6654 5.55654 18.4424 0.333313 11.9987 0.333313ZM11.9987 3.82178C14.1305 3.82178 15.858 5.54987 15.858 7.68078C15.858 9.81219 14.1305 11.5398 11.9987 11.5398C9.86789 11.5398 8.14039 9.81219 8.14039 7.68078C8.14039 5.54987 9.86789 3.82178 11.9987 3.82178ZM11.9961 20.6163C9.86994 20.6163 7.92259 19.842 6.42057 18.5603C6.05467 18.2482 5.84354 17.7905 5.84354 17.3103C5.84354 15.1492 7.59257 13.4196 9.75412 13.4196H14.2443C16.4064 13.4196 18.1487 15.1492 18.1487 17.3103C18.1487 17.791 17.9386 18.2477 17.5722 18.5598C16.0707 19.842 14.1228 20.6163 11.9961 20.6163Z" fill="black" fill-opacity="0.87" />
</svg>