<svg width="58" height="50" viewBox="0 0 358 355" fill="none"
    xmlns="http://www.w3.org/2000/svg">
    <path d="M93.3522 355H15.0283C6.76273 355 0 348.276 0 339.959V159.562C0 136.515 14.5863 115.945 36.3331 108.38C42.0792 106.389 48.0463 105.372 54.1902 105.372C60.2899 105.372 66.3013 106.389 72.0474 108.38C93.75 115.945 108.38 136.515 108.38 159.562V339.959C108.336 348.232 101.618 355 93.3522 355ZM54.1902 118.643C49.5491 118.643 45.0407 119.395 40.709 120.899C24.3105 126.606 13.3045 142.177 13.3045 159.562V339.959C13.3045 340.933 14.1001 341.729 15.0725 341.729H93.3522C94.3246 341.729 95.1202 340.933 95.1202 339.959V159.562C95.1202 142.177 84.1142 126.65 67.7157 120.899C63.3398 119.395 58.8313 118.643 54.1902 118.643Z" fill="#00C3FF" />
    <path d="M79.6057 124.526L70.8097 121.43C65.5056 119.572 59.8921 118.643 54.1902 118.643C48.4883 118.643 42.919 119.572 37.5707 121.43L28.7747 124.526V95.0648C28.7747 88.5177 34.123 83.1651 40.6647 83.1651H67.7157C74.2574 83.1651 79.6057 88.5177 79.6057 95.0648V124.526ZM54.1902 105.372C58.3009 105.372 62.3673 105.77 66.3454 106.522V96.3919H42.035V106.522C46.013 105.77 50.0795 105.372 54.1902 105.372Z" fill="#00C3FF" />
    <path d="M108.38 310.542H50.5658C42.4328 310.542 35.8027 303.907 35.8027 295.767V195.526C35.8027 187.387 42.4328 180.751 50.5658 180.751H108.38V310.542ZM50.5658 194.067C49.7259 194.067 49.0629 194.73 49.0629 195.571V295.811C49.0629 296.652 49.7259 297.315 50.5658 297.315H95.1202V194.067H50.5658Z" fill="#00C3FF" />
    <path d="M211.81 152.351H202.705V139.08H211.81C217.247 139.08 221.667 134.657 221.667 129.216V80.9975H234.927V129.216C234.972 141.956 224.584 152.351 211.81 152.351Z" fill="#00C3FF" />
    <path d="M174.063 215.875C154.614 215.875 138.791 200.039 138.791 180.574V52.1994C138.791 30.7446 121.331 13.271 99.8939 13.271C78.4565 13.271 60.9971 30.7446 60.9971 52.1994V83.1705C60.9971 86.8322 58.0287 89.8006 54.367 89.8006V89.8006C50.7053 89.8006 47.7369 86.8322 47.7369 83.1705V52.1994C47.7369 23.4013 71.1191 0 99.8939 0C128.669 0 152.051 23.4013 152.051 52.1994V180.574C152.051 192.74 161.952 202.604 174.063 202.604C186.218 202.604 196.075 192.695 196.075 180.574V109.84C196.075 106.168 197.489 102.762 200.053 100.152L244.095 55.5938C246.672 52.9874 250.874 52.9661 253.477 55.5463V55.5463C256.074 58.1211 256.095 62.3126 253.524 64.9135L209.468 109.486C209.379 109.574 209.335 109.707 209.335 109.84V180.53C209.335 200.039 193.511 215.875 174.063 215.875Z" fill="#00C3FF" />
    <path d="M301.715 254.361H248.983V240.383C248.983 228.173 258.884 218.264 271.084 218.264H279.614C291.814 218.264 301.715 228.173 301.715 240.383V254.361ZM262.244 241.09H288.455V240.383C288.455 235.516 284.477 231.535 279.614 231.535H271.084C266.222 231.535 262.244 235.516 262.244 240.383V241.09Z" fill="#00C3FF" />
    <path d="M348.008 292.766C345.415 295.374 341.196 295.379 338.597 292.777L331.936 286.111C328.773 282.945 323.827 282.421 320.07 284.855L317.678 286.404C314.599 288.399 310.487 287.517 308.496 284.437V284.437C306.508 281.361 307.388 277.255 310.462 275.264L317.841 270.485C323.954 266.526 332.004 267.378 337.152 272.531L347.997 283.384C350.585 285.975 350.59 290.17 348.008 292.766V292.766Z" fill="#00C3FF" />
    <path d="M212.278 292.777C209.679 295.379 205.46 295.374 202.867 292.766V292.766C200.285 290.17 200.29 285.974 202.878 283.384L213.723 272.531C218.871 267.378 226.921 266.526 233.034 270.485L240.413 275.264C243.487 277.255 244.367 281.361 242.379 284.437V284.437C240.388 287.517 236.276 288.399 233.197 286.404L230.805 284.855C227.048 282.421 222.102 282.945 218.939 286.111L212.278 292.777Z" fill="#00C3FF" />
    <path d="M310.958 257.869C308.367 260.452 304.172 260.448 301.586 257.86V257.86C298.997 255.268 298.999 251.068 301.592 248.48L307.813 242.271C311.556 238.534 316.954 236.977 322.112 238.146L331.768 240.335C335.335 241.143 337.572 244.689 336.766 248.256V248.256C335.96 251.824 332.416 254.064 328.848 253.26L323.775 252.118C320.195 251.311 316.45 252.393 313.851 254.984L310.958 257.869Z" fill="#00C3FF" />
    <path d="M249.289 257.86C246.703 260.448 242.508 260.452 239.917 257.869L237.024 254.984C234.425 252.393 230.68 251.311 227.1 252.118L222.027 253.26C218.459 254.064 214.914 251.824 214.109 248.256V248.256C213.303 244.689 215.54 241.143 219.107 240.335L228.763 238.146C233.921 236.977 239.319 238.534 243.062 242.271L249.283 248.48C251.876 251.068 251.878 255.268 249.289 257.86V257.86Z" fill="#00C3FF" />
    <path d="M327.263 333.993C327.263 337.655 324.295 340.623 320.633 340.623V340.623C316.971 340.623 314.003 337.655 314.003 333.993V327.799C314.003 324.223 311.966 320.959 308.753 319.388L306.308 318.192C303.014 316.581 301.649 312.605 303.258 309.311V309.311C304.871 306.01 308.856 304.645 312.153 306.264L319.179 309.714C324.127 312.143 327.263 317.176 327.263 322.688V333.993Z" fill="#00C3FF" />
    <path d="M236.872 334.258C236.872 337.92 233.904 340.888 230.242 340.888V340.888C226.58 340.888 223.612 337.92 223.612 334.258V322.974C223.612 317.451 226.759 312.41 231.721 309.984L238.749 306.548C242.034 304.942 246 306.301 247.61 309.585V309.585C249.222 312.873 247.861 316.846 244.571 318.455L242.118 319.655C238.908 321.225 236.872 324.486 236.872 328.06V334.258Z" fill="#00C3FF" />
    <path d="M282.09 247.549H268.829V302.535H282.09V247.549Z" fill="#00C3FF" />
    <path d="M284.499 213.355L282.622 216.36C280.683 219.466 281.627 223.559 284.733 225.501C287.838 227.443 291.927 226.498 293.867 223.392L295.743 220.387C297.683 217.28 296.738 213.188 293.633 211.246C290.528 209.304 286.438 210.248 284.499 213.355Z" fill="#00C3FF" />
    <path d="M268.281 216.347L266.405 213.342C264.465 210.235 260.375 209.292 257.27 211.234C254.165 213.176 253.22 217.269 255.16 220.376L257.037 223.381C258.977 226.487 263.067 227.431 266.172 225.489C269.277 223.546 270.221 219.454 268.281 216.347Z" fill="#00C3FF" />
    <path d="M275.327 337.261C264.365 337.261 254.199 331.466 246.729 320.938C239.745 311.117 235.9 298.156 235.9 284.442C235.9 268.163 241.337 253.034 250.751 242.993L262.199 230.827V241.09H288.41V230.827L299.858 242.993C309.317 253.034 314.71 268.119 314.71 284.442C314.71 298.156 310.864 311.117 303.881 320.938C296.455 331.466 286.333 337.261 275.327 337.261ZM258.486 254.361C252.608 261.882 249.16 272.897 249.16 284.442C249.16 295.413 252.122 305.632 257.558 313.241C262.465 320.186 268.785 323.99 275.327 323.99C281.869 323.99 288.189 320.186 293.096 313.241C298.488 305.632 301.494 295.413 301.494 284.442C301.494 272.897 298.046 261.882 292.167 254.361H258.486Z" fill="#00C3FF" />
    <path d="M343.904 61.4892L329.746 75.6589C327.157 78.2502 327.157 82.4516 329.746 85.0429C332.335 87.6342 336.533 87.6342 339.122 85.0429L353.281 70.8731C355.87 68.2818 355.87 64.0805 353.281 61.4892C350.691 58.8979 346.493 58.8979 343.904 61.4892Z" fill="#00C3FF" />
    <path d="M353.312 75.6589L339.154 61.4892C336.564 58.8979 332.366 58.8979 329.777 61.4892C327.188 64.0805 327.188 68.2818 329.777 70.8731L343.936 85.0429C346.525 87.6342 350.723 87.6342 353.312 85.0429C355.901 82.4516 355.901 78.2502 353.312 75.6589Z" fill="#00C3FF" />
    <path d="M159.167 285.744L143.227 301.697C140.638 304.288 140.638 308.49 143.227 311.081C145.816 313.672 150.014 313.672 152.603 311.081L168.543 295.128C171.132 292.537 171.132 288.336 168.543 285.744C165.954 283.153 161.756 283.153 159.167 285.744Z" fill="#00C3FF" />
    <path d="M168.543 301.697L152.603 285.744C150.014 283.153 145.816 283.153 143.227 285.744C140.638 288.336 140.638 292.537 143.227 295.128L159.167 311.081C161.756 313.672 165.954 313.672 168.543 311.081C171.132 308.49 171.132 304.288 168.543 301.697Z" fill="#00C3FF" />
    <path d="M268.17 49.1991C270.325 52.1613 274.473 52.8153 277.433 50.6583C280.394 48.5012 281.046 44.3499 278.891 41.3878C276.736 38.4256 272.589 37.7716 269.628 39.9286C266.668 42.0857 266.015 46.2369 268.17 49.1991Z" fill="#00C3FF" />
    <path d="M287.951 34.7916C290.106 37.7538 294.253 38.4081 297.213 36.2514C300.174 34.0948 300.826 29.9438 298.672 26.9816C296.518 24.0195 292.37 23.3651 289.41 25.5218C286.449 27.6785 285.797 31.8295 287.951 34.7916Z" fill="#00C3FF" />
    <path d="M258.62 39.7254C261.554 41.9176 265.709 41.3136 267.899 38.3777C270.089 35.4419 269.486 31.2836 266.552 29.0913C263.618 26.8991 259.463 27.5032 257.273 30.439C255.083 33.3748 255.686 37.5332 258.62 39.7254Z" fill="#00C3FF" />
    <path d="M273.388 19.9309C276.322 22.1231 280.477 21.519 282.667 18.5832C284.857 15.6473 284.254 11.489 281.32 9.29678C278.386 7.10456 274.231 7.70861 272.041 10.6444C269.851 13.5803 270.454 17.7386 273.388 19.9309Z" fill="#00C3FF" />
    <path d="M195.942 31.0984C189.356 31.0984 184.008 25.7458 184.008 19.1545C184.008 12.5632 189.356 7.21057 195.942 7.21057C202.528 7.21057 207.877 12.5632 207.877 19.1545C207.921 25.7458 202.572 31.0984 195.942 31.0984ZM195.942 17.8274C195.235 17.8274 194.616 18.4025 194.616 19.1545C194.616 19.8623 195.191 20.4816 195.942 20.4816C196.694 20.4816 197.268 19.9065 197.268 19.1545C197.268 18.4025 196.694 17.8274 195.942 17.8274Z" fill="#00C3FF" />
    <path d="M316.169 171.019C305.914 171.019 297.604 162.659 297.604 152.44C297.604 142.221 305.958 133.86 316.169 133.86C326.379 133.86 334.733 142.221 334.733 152.44C334.733 162.659 326.379 171.019 316.169 171.019ZM316.169 147.087C313.251 147.087 310.864 149.476 310.864 152.396C310.864 155.315 313.251 157.704 316.169 157.704C319.086 157.704 321.473 155.315 321.473 152.396C321.473 149.476 319.086 147.087 316.169 147.087Z" fill="#00C3FF" />
    <path d="M101.75 220.609H65.3289V233.88H101.75V220.609Z" fill="#00C3FF" />
    <path d="M101.75 257.458H76.158V270.729H101.75V257.458Z" fill="#00C3FF" />
</svg>