<svg xmlns="http://www.w3.org/2000/svg" width="24" height="24" viewBox="0 0 24 24">
    <g fill="none" fill-rule="nonzero">
        <circle cx="12" cy="12" r="12" fill="#006C35"/>
        <g fill="#FFF">
            <path d="M1.906 7.747c-.046.637-.103 1.758.436 1.873.652.064.292-1.108.528-1.32.044-.105.127-.105.133.026v.995c-.005.322.206.418.37.484.17-.013.285-.007.352.16l.08 1.719s.397.114.416-.968c.018-.634-.126-1.165-.042-1.289.004-.12.157-.128.265-.069.17.12.246.27.51.21.404-.112.646-.309.652-.619-.024-.295-.057-.59-.184-.886.018-.054-.077-.193-.06-.247.072.114.182.105.208 0-.07-.227-.176-.445-.348-.54-.143-.125-.351-.099-.427.165-.035.302.108.662.328.956.047.115.112.306.083.478-.117.066-.234.04-.332-.066 0 0-.32-.241-.32-.295.085-.548.019-.61-.029-.761-.033-.21-.132-.277-.211-.42-.08-.085-.19-.085-.24 0-.143.247-.077.776.026 1.014.073.219.187.356.133.356-.044.123-.135.094-.2-.048-.096-.295-.114-.734-.114-.931-.03-.246-.06-.769-.22-.901-.098-.134-.244-.07-.294.054-.01.242-.013.486.015.71.11.394.145.74.198 1.143.015.539-.31.233-.295-.034.074-.347.055-.894-.011-1.033-.053-.138-.116-.174-.245-.15-.101-.006-.364.281-.437.76 0 0-.063.246-.09.464-.036.247-.198.42-.312-.034-.098-.331-.158-1.147-.322-.956"/>
            <path d="M3.677 10.362c-.576.282-1.132.545-1.698.819.021-.387.807-1.085 1.344-1.095.349.01.261.137.354.276"/>
            <path d="M5.167 10.605c-.018.036-.1.021-.16.021-.068-.002-.1-.014-.141-.07-.02-.061.039-.122.065-.167.032-.055.204-.112.265.042a.175.175 0 0 1-.029.174m2.646-.847l-.038.246c-.015.08-.173.083-.18-.019-.069-.316-.356-.357-.529.133-.117.095-.327.115-.349-.028.028-.329-.105-.373-.37-.219-.084-.65-.169-1.274-.254-1.926.11-.005.211.078.311-.048-.11-.345-.343-1.051-.472-1.101-.063-.077-.117-.03-.198-.01-.139.044-.268.164-.227.399.164 1 .271 1.762.435 2.763.025.117-.073.272-.2.256-.213-.145-.266-.44-.632-.427-.265.003-.567.29-.606.57-.043.221-.06.461 0 .654.187.225.41.204.606.153.16-.068.293-.228.35-.19.037.047.01.579-.756.987-.464.209-.832.256-1.03-.123-.123-.238.009-1.14-.293-.931-.895 2.317 2.094 2.64 2.428.095.032-.104.158-.21.18-.038-.07 2.304-2.312 2.463-2.693 1.738-.095-.171-.124-.55-.133-.779-.057-.452-.293-.278-.33.171-.039.25-.03.32-.03.56.12 1.82 3.01 1.038 3.478-.465.25-.832-.04-1.446.095-1.444.286.311.687.043.774-.065.039-.054.134-.09.2-.02.224.162.617.085.7-.2.046-.277.084-.565.093-.863-.182.057-.317.094-.33.171"/>
            <path d="M7.925 7.266h-.001c-.055.014-.125-.035-.157-.107-.033-.074-.016-.142.038-.156h.001c.054-.013.124.035.157.108s.015.142-.038.155m.152 0c.21-.123.144-.394.033-.517a.51.51 0 0 0-.458.004c-.147.143-.182.371-.066.513.114.054.227.17.15.233-.347.374-1.3 1.018-1.19 1.04.025.03.61.03.628 0 .181-.067 1.031-1.044 1.031-1.044-.044-.039-.083-.067-.128-.105-.047-.042-.042-.082 0-.124M2.038 12.002c-.319.51-.347 1.274-.17 1.5.093.109.247.156.361.122.2-.087.288-.496.24-.645-.067-.105-.12-.121-.186-.032-.14.288-.2.09-.212-.07a3.777 3.777 0 0 1 .04-.808c.035-.229 0-.16-.073-.067M15.67 11.184c-.309-.668-.735-1.326-.871-1.58-.136-.253-1.162-1.749-1.312-1.917-.333-.398.54.166-.111-.624-.249-.214-.263-.227-.47-.402-.103-.075-.357-.21-.402.014-.023.198-.01.306.022.471.025.11.185.295.264.4 1.04 1.406 1.962 2.826 2.853 4.61.14-.067.11-.861.028-.972"/>
            <path d="M14.317 13.415c-.061.069.15.362.423.362.458-.054.86-.312 1.232-.99.1-.16.276-.499.28-.761.035-1.54-.075-2.74-.306-3.854a.62.62 0 0 1 .013-.269c.029-.035.13 0 .183-.087.078-.08-.208-.744-.371-1-.057-.115-.077-.192-.173.013-.101.166-.169.455-.16.725.217 1.518.284 2.845.427 4.362.012.147-.01.36-.107.445-.359.377-.878.84-1.441 1.054M20.493 13.407c-.327.192-.328.41-.063.418.458-.053.997-.091 1.371-.656.099-.159.219-.587.223-.85.035-1.541-.02-2.691-.25-3.805-.014-.11-.062-.359-.044-.391.03-.077.178.008.232-.08.078-.08-.386-.679-.548-.934-.059-.115-.08-.191-.174.012-.102.166-.137.464-.096.726.242 1.648.423 2.886.46 4.346-.02.139-.026.214-.09.388-.143.184-.302.416-.45.527-.15.11-.466.217-.57.3"/>
            <path d="M20.739 11.93c-.003-.385.006-.717-.007-1.005a1.783 1.783 0 0 0-.162-.725c-.094-.219-.035-.395-.08-.627-.043-.234-.032-.582-.099-.859-.017-.108-.074-.454-.058-.486.028-.078.13.002.181-.087.076-.083-.261-.96-.432-1.21-.061-.113-.174-.074-.311.108-.127.12-.08.394-.032.655.33 1.72.573 3.277.52 4.915-.016.14.484-.415.48-.678M18.316 9.797c-.207-.005-.639-.404-.765-.638a.432.432 0 0 1 .025-.342c.075-.05.194-.106.282-.053 0 0 .092.128.073.145.112.054.16.023.172-.023.008-.08-.033-.128-.034-.217.049-.242.322-.278.425-.125.076.093.103.293.115.426-.001.07-.111-.011-.175.005-.062.017-.078.09-.083.155-.011.175-.031.455-.035.667M14.507 12.358c.057-.524-.02-1.456-.026-1.765-.022-.73-.14-2.14-.197-2.376-.063-.443.183.05.149-.209-.08-.443-.326-.744-.612-1.15-.093-.132-.09-.159-.234.033-.159.361-.021.61.02.89.207.918.328 1.76.385 2.594.057.835.073 1.736.023 2.614.154.007.404-.253.492-.631"/>
            <path d="M21.442 11.518c-.364-.614-.914-1.278-1.06-1.525-.147-.247-1.387-1.856-1.546-2.017-.453-.48.21-.078-.086-.448-.25-.276-.323-.362-.536-.528-.108-.07-.173-.202-.208.025a4.549 4.549 0 0 0-.015.596c0 .093.096.268.18.371 1.1 1.359 2.3 2.746 3.266 4.49.138-.073.092-.856.005-.964M8.433 7.225c-.33.95.19 1.992.552 1.891.26.108.427-.39.533-.936.073-.153.128-.169.165-.091-.01.727.053.887.238 1.107a.599.599 0 0 0 .785.015l.322-.325c.071-.076.167-.08.268-.013.1.09.086.245.296.353.178.072.558.017.645-.138.119-.203.148-.273.202-.35.084-.113.229-.063.229-.027-.014.063-.098.125-.04.24.1.075.123.026.183.01.21-.102.367-.561.367-.561.01-.171-.085-.157-.147-.121-.082.048-.086.065-.167.115-.103.015-.303.084-.4-.07-.1-.184-.103-.442-.18-.627 0-.015-.133-.294-.009-.311.063.011.198.046.218-.067.065-.11-.141-.423-.282-.58-.123-.136-.294-.152-.457-.014-.115.107-.099.225-.121.338a.529.529 0 0 0 .108.46c.114.227.324.519.255.93 0 0-.123.196-.336.17-.088-.019-.233-.057-.31-.629-.058-.431.014-1.037-.168-1.32-.066-.17-.114-.336-.275-.043-.043.115-.229.29-.094.648.11.227.154.597.104 1.01-.076.117-.092.156-.193.274-.14.151-.292.113-.408.056-.11-.074-.194-.112-.245-.347.01-.373.03-.985-.038-1.114-.1-.202-.265-.129-.336-.068-.339.311-.507.837-.61 1.256-.093.306-.193.218-.264.094-.17-.16-.182-1.422-.39-1.215"/>
            <path d="M11.542 11.904c-.209.071-.408.127-.409.43.076.421-.106.276-.215.219-.129-.092-.489-.315-.54-.796-.008-.116.082-.212.226-.212.215.06.534.063.81.092.226.015.338.192.128.267m.78-1.97c.03-.05.125-.047.215.005.09.053.14.134.111.184-.029.05-.126.047-.215-.006-.09-.052-.14-.134-.111-.184zm1.498 1.158l-1.94-.01c-.1-.038-.072-.071 0-.098.463-.063 1.287-.2 1.34-.993-.007-.415-.176-.686-.682-.762-.37.03-.636.391-.594.79-.017.106.035.316-.073.34-.713.066-1.49.513-1.516.834-.044.03-.14-.057-.128-.194a3.866 3.866 0 0 0-.49-1.666c-.225-.225-.155-.15-.306-.043-.097.112-.114.188-.11.411 0 .007.183.518.336.874.103.365.2.784.13 1.178-.24.523-.721.992-1.186 1.246-.24.077-.444.05-.496-.005-.146-.098-.14-.283-.129-.286.391-.275.84-.495 1.19-1.235.103-.283.134-.453.032-.89a.864.864 0 0 0-.203-.413c.062-.04.244.096.27.014-.04-.21-.181-.49-.341-.632-.14-.128-.291-.142-.418-.026-.145.08-.176.37-.106.622.076.191.283.223.432.607 0 .008.054.286-.023.395-.06.19-.85.814-.895.842-.021.027-.01-.014-.014-.117-.006-.127.05-.426.035-.428-.257.167-.342.679-.389.83-.65.452-1.386.788-1.811 1.245-.222.348 1.525-.399 1.729-.49.044.035.039.19.162.332.18.247.565.399.94.305.631-.23.995-.661 1.364-1.139.053-.078.135-.137.212-.078.253.573.987.976 1.934 1.019.22-.268.113-.398.025-.455 0-.008-.468-.186-.538-.365-.044-.16.06-.303.272-.411.608-.074 1.205-.156 1.783-.343.007-.194.119-.487.196-.613.077-.128.117-.089.105-.135l-.099-.057zM4.35 7.235c.224.108.645.063.626-.3 0-.031-.008-.14-.011-.17-.045-.106-.17-.08-.198.03-.008.036.015.095-.017.114-.018.018-.09.007-.086-.093 0-.032-.024-.066-.038-.086-.014-.01-.023-.012-.05-.012-.03 0-.03.01-.047.036-.007.026-.017.052-.017.083-.004.035-.017.048-.043.053-.03 0-.023.003-.046-.012-.014-.015-.032-.021-.032-.047a.287.287 0 0 0-.014-.09c-.013-.016-.032-.023-.055-.03-.122.002-.13.14-.123.195-.01.009-.014.26.152.33"/>
            <path d="M10.897 10.016c.224.107.755.046.625-.3a2.3 2.3 0 0 0-.011-.17c-.046-.106-.17-.08-.198.03-.009.036.016.095-.017.113-.018.02-.09.008-.087-.093 0-.032-.023-.065-.037-.086-.014-.009-.023-.011-.05-.011-.03.001-.03.01-.047.035-.007.027-.017.053-.017.083-.003.036-.017.049-.042.054-.03 0-.023.003-.047-.011-.014-.016-.032-.022-.032-.048a.29.29 0 0 0-.014-.09c-.012-.016-.032-.023-.054-.03-.123.002-.131.14-.124.194-.01.01-.014.261.152.33M14.715 8.863c.223.108.643.063.625-.3 0-.031-.008-.14-.01-.17-.046-.106-.17-.08-.199.03-.008.036.016.095-.016.114-.019.018-.09.007-.087-.093 0-.032-.025-.066-.037-.086-.015-.01-.024-.012-.05-.012-.03.002-.03.01-.047.036-.008.027-.018.052-.018.083-.004.035-.016.049-.043.053-.03 0-.023.003-.047-.012-.013-.015-.03-.02-.03-.047a.288.288 0 0 0-.015-.09c-.012-.016-.032-.023-.055-.028-.121 0-.13.14-.122.192-.01.01-.015.26.151.33M16.693 11.759c-.39.44-.218 1.17-.13 1.327.127.257.232.423.481.55.227.168.404.064.502-.054.23-.239.232-.847.34-.968.075-.222.265-.183.357-.085.09.129.194.212.325.282.213.19.468.224.72.051.171-.096.283-.222.384-.47.111-.3.05-1.686.027-2.507-.01-.064-.222-1.13-.222-1.142 0-.011-.028-.544-.052-.67-.004-.051-.016-.067.038-.06.055.048.063.051.099.068.057.01.109-.088.075-.179l-.534-.987c-.042-.042-.098-.089-.165.012a.385.385 0 0 0-.132.293c.017.234.057.472.073.706l.212 1.2c.068.858.085 1.558.152 2.415-.01.363-.12.679-.227.725 0 0-.16.093-.267-.01-.079-.032-.392-.523-.392-.523-.16-.148-.265-.105-.378 0-.314.305-.456.874-.668 1.266-.056.088-.21.163-.383-.006-.437-.6-.18-1.454-.235-1.234M14.82 6.763c.2.084.341.491.295.69-.04.246-.146.511-.222.477-.084-.03.057-.244-.023-.469-.044-.146-.318-.412-.29-.491-.056-.165.118-.237.24-.207"/>
            <path d="M17.337 12c.042-.49-.03-.787-.042-1.075-.013-.286-.324-2.48-.387-2.697-.075-.412.303-.055.261-.295-.13-.302-.457-.74-.559-1.002-.062-.112-.035-.212-.173-.03-.127.42-.172.763-.123 1.023.328 1.721.663 3.151.61 4.788.157.003.336-.357.413-.712M20.756 7.453c.182.091.288.602.269.748-.036.265-.133.553-.203.516-.076-.034.015-.395-.021-.508-.04-.158-.289-.446-.263-.53-.052-.18.106-.257.218-.226M7.2 11.075c.174.068.276.442.256.55-.034.195-.127.406-.194.378-.071-.024.016-.29-.02-.372-.014-.2-.256-.304-.251-.39-.046-.16.1-.189.208-.166M2.535 6.641c.258.078.272.458.253.57-.035.203-.125.421-.19.392-.072-.024-.004-.3-.038-.385-.038-.122-.256-.34-.23-.406-.05-.136.098-.195.205-.17M7.616 8.438c-.197.108-.274.427-.15.613.114.165.296.104.32.104.193.024.308-.365.308-.365s.006-.11-.224.098c-.097.018-.108-.018-.133-.073a.493.493 0 0 1 .03-.304c.035-.097-.04-.14-.15-.073M9.1 6.495c-.099.066-.297.273-.303.51-.005.133-.03.133.056.218.063.091.127.083.254.015a.268.268 0 0 0 .122-.179c.03-.152-.16.072-.184-.097-.042-.158.08-.221.195-.374.004-.103.001-.177-.14-.093M10.294 6.708c-.043.094-.094.59-.085.59-.034.148.153.211.239.021.128-.348.128-.495.137-.644-.04-.225-.19-.217-.29.033M17.82 10.554c.024-.026 1.06-.766 1.06-.766.106-.037.082.382.034.379.02.083-1.021.793-1.095.764-.051.037-.103-.286 0-.377M18.763 10.554c.182.09.255.627.234.773.007.283-.174.51-.245.473-.075-.033.007-.352-.03-.465-.04-.157-.195-.455-.168-.54-.051-.178.097-.273.209-.241M12.608 12.858c.071-.106.294-.258.3-.258.102-.051.202.04.195.035.018.103-.064.198-.039.336.023.055.04.118.14.094.165-.13.317-.14.481-.146.126.006.131.22.052.222-.303.067-.44.148-.656.232-.104.06-.191-.017-.191-.025s-.06-.06-.018-.196c.008-.109-.036-.169-.127-.156-.069.037-.129.06-.163-.018-.013-.057-.019-.086.026-.12M19.851 13.147c.045.057.074.108-.003.201-.072.068-.123.105-.196.171-.035.06-.056.148.049.176.193.055.64-.236.64-.242.073-.055.048-.158.043-.158-.042-.048-.137-.02-.202-.029-.03 0-.131-.014-.083-.104a.61.61 0 0 0 .08-.157c.032-.066.005-.111-.104-.147-.111-.021-.155-.01-.278 0-.066.013-.089.043-.1.124.005.122.078.116.154.165M18.24 16.81h-1.354v-.454a.453.453 0 0 0-.451-.454.453.453 0 0 0-.452.454v.453H5.147s0 .908 2.71.908h8.126v.453a.453.453 0 0 0 .903 0v-.453h.903v.453a.453.453 0 0 0 .903 0v-.907a.453.453 0 0 0-.451-.454"/>
        </g>
    </g>
</svg>
