<svg width="102" height="102" viewBox="0 0 102 102" fill="none"
    xmlns="http://www.w3.org/2000/svg">
    <path d="M96.3255 100.201H5.88014C2.64602 100.201 0 97.5544 0 94.3205V35.7308L51.1992 33.7386L102 35.7308V94.5261C102 97.66 99.4594 100.201 96.3255 100.201Z" fill="#F0F0F0" />
    <path d="M102 35.7309H0V17.03C0 13.7292 2.67571 11.0535 5.97656 11.0535H95.8178C99.1187 11.0535 102 13.7292 102 17.03V35.7309Z" fill="#FF525F" />
    <path d="M49.9057 72.163C49.4967 72.163 49.1043 72.0005 48.8152 71.7114L45.1799 68.076C44.5774 67.4736 44.5774 66.4972 45.1799 65.8946C45.7821 65.2926 46.7587 65.2926 47.3611 65.8946L49.9059 68.4394L55.3589 62.9862C55.9612 62.3842 56.9377 62.3842 57.5402 62.9862C58.1426 63.5886 58.1426 64.565 57.5402 65.1676L50.9966 71.7114C50.7072 72.0005 50.3147 72.163 49.9057 72.163Z" fill="#00BDF7" />
    <path d="M31.3974 72.163C30.9884 72.163 30.596 72.0005 30.3069 71.7114L26.6716 68.076C26.0691 67.4736 26.0691 66.4972 26.6716 65.8946C27.2738 65.2926 28.2504 65.2926 28.8528 65.8946L31.3976 68.4394L36.8506 62.9862C37.4529 62.3842 38.4294 62.3842 39.0319 62.9862C39.6343 63.5886 39.6343 64.565 39.0319 65.1676L32.4883 71.7114C32.1989 72.0005 31.8064 72.163 31.3974 72.163Z" fill="#00BDF7" />
    <path d="M12.8896 72.163C12.4806 72.163 12.0882 72.0005 11.7991 71.7114L8.16374 68.076C7.5613 67.4736 7.5613 66.4972 8.16374 65.8946C8.76598 65.2926 9.74255 65.2926 10.345 65.8946L12.8896 68.4394L18.3426 62.9862C18.9449 62.3842 19.9214 62.3842 20.5239 62.9862C21.1263 63.5886 21.1263 64.565 20.5239 65.1676L13.9803 71.7114C13.6909 72.0005 13.2986 72.163 12.8896 72.163Z" fill="#00BDF7" />
    <path d="M17.1362 53.562H10.6257C9.8681 53.562 9.25391 52.9478 9.25391 52.1901V45.6797C9.25391 44.9221 9.8681 44.3079 10.6257 44.3079H17.1362C17.8938 44.3079 18.508 44.9221 18.508 45.6797V52.1901C18.5078 52.9478 17.8936 53.562 17.1362 53.562Z" fill="white" />
    <path d="M68.4135 53.749C68.0189 53.749 67.624 53.5984 67.323 53.2974L63.6877 49.662C63.0852 49.0596 63.0852 48.0832 63.6877 47.4806C64.2899 46.8785 65.2665 46.8785 65.8689 47.4806L68.4137 50.0254L73.8668 44.5724C74.4692 43.9703 75.4458 43.9703 76.048 44.5724C76.6504 45.1748 76.6504 46.1512 76.048 46.7538L69.5045 53.2974C69.203 53.5984 68.8082 53.749 68.4135 53.749Z" fill="#00BDF7" />
    <path d="M49.9052 53.749C49.5106 53.749 49.1157 53.5984 48.8147 53.2974L45.1794 49.662C44.5769 49.0596 44.5769 48.0832 45.1794 47.4806C45.7816 46.8785 46.7582 46.8785 47.3606 47.4806L49.9054 50.0254L55.3584 44.5724C55.9609 43.9703 56.9375 43.9703 57.5397 44.5724C58.1421 45.1748 58.1421 46.1512 57.5397 46.7538L50.9962 53.2974C50.6947 53.5984 50.2999 53.749 49.9052 53.749Z" fill="#00BDF7" />
    <path d="M31.3974 53.749C31.0028 53.749 30.6079 53.5984 30.3069 53.2974L26.6716 49.662C26.0691 49.0596 26.0691 48.0832 26.6716 47.4806C27.2738 46.8785 28.2504 46.8785 28.8528 47.4806L31.3976 50.0254L36.8506 44.5724C37.4531 43.9703 38.4296 43.9703 39.0319 44.5724C39.6343 45.1748 39.6343 46.1512 39.0319 46.7538L32.4883 53.2974C32.1869 53.5984 31.7921 53.749 31.3974 53.749Z" fill="#00BDF7" />
    <path d="M91.1684 71.9758H84.658C83.9003 71.9758 83.2861 71.3616 83.2861 70.604V64.0935C83.2861 63.3359 83.9003 62.7217 84.658 62.7217H91.1684C91.9261 62.7217 92.5402 63.3359 92.5402 64.0935V70.604C92.54 71.3618 91.9259 71.9758 91.1684 71.9758Z" fill="white" />
    <path d="M72.5789 72.0437H66.0684C65.3108 72.0437 64.6966 71.4295 64.6966 70.6719V64.1614C64.6966 63.4038 65.3108 62.7896 66.0684 62.7896H72.5789C73.3365 62.7896 73.9507 63.4038 73.9507 64.1614V70.6719C73.9505 71.4297 73.3363 72.0437 72.5789 72.0437Z" fill="white" />
    <path d="M91.1684 53.6735H84.658C83.9003 53.6735 83.2861 53.0593 83.2861 52.3017V45.7913C83.2861 45.0336 83.9003 44.4194 84.658 44.4194H91.1684C91.9261 44.4194 92.5402 45.0336 92.5402 45.7913V52.3017C92.54 53.0595 91.9259 53.6735 91.1684 53.6735Z" fill="white" />
    <path d="M17.1362 90.484H10.6257C9.8681 90.484 9.25391 89.8698 9.25391 89.1121V82.6017C9.25391 81.844 9.8681 81.2299 10.6257 81.2299H17.1362C17.8938 81.2299 18.508 81.844 18.508 82.6017V89.1121C18.5078 89.8698 17.8936 90.484 17.1362 90.484Z" fill="white" />
    <path d="M35.644 90.484H29.1335C28.3759 90.484 27.7617 89.8698 27.7617 89.1121V82.6017C27.7617 81.844 28.3759 81.2299 29.1335 81.2299H35.644C36.4016 81.2299 37.0158 81.844 37.0158 82.6017V89.1121C37.0156 89.8698 36.4016 90.484 35.644 90.484Z" fill="white" />
    <path d="M54.1523 90.484H47.6418C46.8842 90.484 46.27 89.8698 46.27 89.1121V82.6017C46.27 81.844 46.8842 81.2299 47.6418 81.2299H54.1523C54.9099 81.2299 55.5241 81.844 55.5241 82.6017V89.1121C55.5241 89.8698 54.9099 90.484 54.1523 90.484Z" fill="white" />
    <path d="M72.6601 90.484H66.1496C65.392 90.484 64.7778 89.8698 64.7778 89.1121V82.6017C64.7778 81.844 65.392 81.2299 66.1496 81.2299H72.6601C73.4177 81.2299 74.0319 81.844 74.0319 82.6017V89.1121C74.0319 89.8698 73.4177 90.484 72.6601 90.484Z" fill="white" />
</svg>