<svg width="105" height="101" viewBox="0 0 105 101" fill="none"
    xmlns="http://www.w3.org/2000/svg">
    <path d="M50.1689 87.1909C51.4584 86.5082 53.5281 86.4988 54.8363 87.1909L78.8227 99.903C83.9339 102.61 87.2838 100.148 86.3073 94.4227L81.7287 67.506C81.4811 66.0606 82.1118 64.069 83.1723 63.0332L102.58 43.9697C106.715 39.9066 105.425 35.9329 99.7208 35.0995L72.9031 31.1729C71.4595 30.961 69.7775 29.7416 69.1234 28.4045L57.1303 3.9125C54.5746 -1.30888 50.4258 -1.29946 47.8749 3.9125L35.8817 28.4045C35.237 29.7228 33.569 30.9563 32.1067 31.1729L5.28435 35.0995C-0.429588 35.9376 -1.70506 39.9113 2.42504 43.9697L21.8328 63.0332C22.8747 64.0596 23.5241 66.0417 23.2765 67.506L18.6978 94.4227C17.7214 100.157 21.0806 102.61 26.1872 99.903L50.1736 87.1909H50.1689Z" fill="#FFD03E" />
</svg>