<svg width="38" height="52" viewBox="0 0 38 52" fill="none"
    xmlns="http://www.w3.org/2000/svg">
    <g clip-path="url(#clip0_3599_1888)">
        <path d="M35.7988 23.7001C34.9627 22.4753 35.0686 21.6387 35.2779 19.9705C35.4109 18.9091 35.5771 17.5864 35.518 15.8013C35.4478 13.6533 34.6278 11.8457 33.921 10.5104C33.032 8.83343 31.6812 7.37 30.0054 6.24448C29.9524 5.48451 29.615 3.07519 27.4713 1.49871C25.2056 -0.166957 21.7431 -0.285037 17.2008 1.10804C15.3353 -0.0011443 12.2041 -0.825185 7.78482 1.42837C0.627111 5.08002 -1.12999 17.6366 0.638193 23.0481C1.29942 25.0718 2.09116 26.5955 2.82626 27.7148C2.38175 29.2548 1.8412 32.8047 5.0722 35.6286C5.07467 35.6311 5.07836 35.6324 5.08205 35.6336C5.14608 36.283 5.35787 36.9852 5.72727 37.7377C5.81839 37.9223 5.92428 38.107 6.04126 38.2916L5.66817 39.7036C5.39235 40.7411 4.45654 43.5876 3.77808 45.247C3.59954 45.6841 3.80147 46.1866 4.22998 46.3687C4.33587 46.414 4.44546 46.4353 4.55381 46.4353C4.88258 46.4353 5.19534 46.2369 5.32955 45.9077C6.03264 44.1906 7.00416 41.2323 7.29106 40.1508L7.3674 39.8593C7.92519 40.3907 8.5938 40.9195 9.37077 41.4421C9.21439 41.5539 9.08879 41.7059 9.03338 41.8956C8.97059 42.1179 8.99768 42.3566 9.1085 42.5588C10.2352 44.5888 12.0982 45.9605 14.4968 46.5496C16.6085 49.7541 20.119 50.3194 22.3145 50.3194C23.3697 50.3194 24.1135 50.1912 24.2612 50.1636C24.9569 50.7615 25.9358 51.1032 27.1327 50.6548C28.5979 50.1071 30.2442 51.7363 30.259 51.7514C30.4179 51.9134 30.6321 52.0001 30.8513 52.0001C30.9325 52.0001 31.0138 51.9876 31.0939 51.9637C31.3881 51.8732 31.6122 51.6245 31.6738 51.3155C31.6935 51.2188 32.1356 48.9263 30.5976 47.5721C29.2678 46.4014 26.9824 46.4077 23.8056 47.5822C22.8181 46.4868 21.8343 45.7319 20.896 45.2181C21.4378 41.5815 21.8183 40.3015 22.0374 39.8669C22.461 39.9209 23.3168 40.1068 24.031 40.26C27.656 41.0451 30.5225 41.5664 31.7354 40.6105C32.0998 40.3216 32.3116 39.9045 32.3313 39.4373C32.3991 37.8118 33.6464 36.1788 34.246 35.3937C34.3938 35.2002 34.5108 35.0457 34.5822 34.9364C34.9688 34.3448 34.7928 33.7242 34.4701 33.2117C34.9233 32.8939 35.2139 32.4216 35.1659 31.7923C35.1326 31.3752 35.1351 30.7723 35.1449 30.2974C35.9354 30.2057 36.9513 30.0512 37.3822 29.8314C37.6667 29.6857 37.8711 29.4181 37.956 29.079C38.2565 27.8793 36.9808 25.4311 35.7988 23.6988V23.7001ZM23.8758 12.7275C23.7588 12.612 23.6098 12.5316 23.4424 12.5002C22.0892 12.2489 20.8455 12.205 19.7016 12.3457C21.1546 10.3735 23.5606 7.68027 26.0454 7.40015C27.1696 7.27453 28.2002 7.65892 29.189 8.57717C29.1459 9.34469 28.5943 11.6058 23.8758 12.7275ZM17.037 42.6719C15.9264 41.8855 13.7087 40.054 13.3135 37.7402C13.1128 36.5606 13.4255 35.3723 14.2456 34.1966C15.2984 34.905 17.4212 36.5845 17.8903 38.8469C18.1477 40.0892 17.8608 41.373 17.037 42.6731V42.6719ZM7.82422 32.3814C7.79098 32.3563 7.75404 32.3387 7.71833 32.3186C7.70971 32.3136 7.70601 32.3048 7.69616 32.2998C7.02263 31.9568 7.38341 30.1505 7.74295 29.182C8.61227 28.5451 9.63673 27.6193 10.4026 26.4222C12.7545 27.2412 14.1003 29.1996 14.386 32.2922C14.0486 32.1377 13.6496 32.2181 13.4058 32.5095C12.6092 33.4579 12.0785 34.4327 11.8002 35.4251L7.82176 32.3814H7.82422ZM12.5858 11.2716C12.7064 12.7137 13.1103 14.2651 13.9242 15.8868C12.6055 17.8954 12.3789 19.9994 12.3678 20.1175C12.3457 20.3486 12.4158 20.5785 12.5611 20.7556C12.667 20.8838 12.8123 20.9604 12.9675 21.0081C11.2018 21.9151 9.78326 22.0407 9.01122 22.0156C9.16391 16.0651 11.0934 12.8682 12.5858 11.2704V11.2716ZM7.9572 23.6084C8.00769 23.6209 8.45097 23.729 9.18853 23.729C9.35722 23.729 9.54315 23.7227 9.74017 23.7089C9.28704 25.8795 7.3477 27.4309 6.19394 28.177C5.31354 24.5492 6.34909 21.8912 7.43635 20.2494C7.3674 21.0458 7.31938 21.8774 7.31938 22.7755C7.31938 23.1687 7.58288 23.5117 7.95597 23.6071L7.9572 23.6084ZM13.6952 26.4938C12.9946 25.7841 12.1499 25.2339 11.166 24.8595C11.3224 24.4048 11.4271 23.9187 11.4788 23.4087C12.7594 23.0707 14.2998 22.3974 15.9695 21.0961C17.0395 21.042 18.0098 20.8988 18.8803 20.6702C18.1785 24.1925 15.7749 25.7815 13.6952 26.495V26.4938ZM14.216 19.399C14.4943 18.3149 15.1777 16.4797 16.771 15.2625C18.2252 14.1508 20.1609 13.7563 22.5324 14.0879C22.5657 14.819 22.4635 16.1393 21.5117 17.2648C20.2262 18.7847 17.7155 19.5158 14.2173 19.399H14.216ZM26.4702 2.87672C27.7988 3.84271 28.1793 5.26719 28.2889 6.00456C27.5144 5.70559 26.7042 5.59882 25.8607 5.69554C21.9057 6.14022 18.4974 10.9362 17.1786 13.0441C16.6713 13.279 16.1911 13.5604 15.7466 13.902C15.5225 14.0754 15.3168 14.2588 15.1198 14.446C12.534 8.44779 16.2539 3.81256 17.0309 2.94204C21.311 1.52007 24.5727 1.4962 26.469 2.87672H26.4702ZM8.53716 2.96339C11.6426 1.38063 13.9353 1.55147 15.4855 2.16322C14.6507 3.22091 13.002 5.6767 12.6239 8.949C11.3692 9.89488 8.99891 12.2627 7.90303 17.148C6.97214 17.9531 3.6611 21.2531 4.2583 26.8154C3.59584 25.8167 2.85951 24.4224 2.23399 22.5067C0.668976 17.7157 2.25493 6.16911 8.53716 2.96465V2.96339ZM4.19673 29.4684C4.74836 30.0537 5.13131 30.3238 5.17317 30.3514C5.31231 30.4469 5.47485 30.4959 5.63985 30.4959C5.65708 30.4959 5.67432 30.4896 5.69156 30.4884C5.58444 31.3061 5.6066 32.2168 6.00309 32.9303C5.81469 33.1125 5.63123 33.3411 5.47485 33.6187C4.28785 32.2131 4.08098 30.6894 4.19796 29.4684H4.19673ZM7.23195 36.9714C6.76035 36.0105 6.62737 35.204 6.84532 34.6425C6.94505 34.3875 7.10513 34.2079 7.25165 34.0873L11.5872 37.4048C11.6007 37.6171 11.6216 37.8294 11.6586 38.0417C11.8347 39.0667 12.2681 39.995 12.8099 40.814C12.3654 40.7738 11.9578 40.7813 11.5859 40.814C9.33875 39.5214 7.83161 38.1949 7.23195 36.9727V36.9714ZM11.1599 42.5952C12.0218 42.4231 13.4194 42.3867 15.0386 43.2723C15.568 43.722 16.047 44.0675 16.3795 44.2885C15.4166 44.4041 14.7554 44.683 14.5559 44.7772C13.1399 44.3664 11.991 43.6479 11.1599 42.5952ZM29.498 48.866C29.6717 49.0167 29.7948 49.2026 29.881 49.4011C29.2801 49.0858 28.5475 48.8271 27.7619 48.8271C27.3703 48.8271 26.9652 48.8911 26.5564 49.0431C26.0171 49.2441 25.6194 49.1034 25.3386 48.866C27.3321 48.2542 28.79 48.2505 29.4968 48.866H29.498ZM16.2009 46.0233C17.4667 45.7658 19.8592 45.8085 22.4499 48.606C20.6953 48.6386 17.9716 48.2693 16.2009 46.0233ZM34.2547 28.6657C33.8348 28.7034 33.5073 29.0526 33.4888 29.4809C33.4863 29.5412 33.426 30.9217 33.4826 31.8174C33.3607 31.8865 33.112 31.9606 32.915 31.9807C32.5739 32.0121 32.2858 32.2533 32.186 32.5887C32.0875 32.9241 32.1984 33.2858 32.4655 33.5044C32.6958 33.6928 32.9495 33.9717 33.0627 34.1513C33.0209 34.2066 32.9729 34.2694 32.9199 34.3385C32.2217 35.253 30.7762 37.146 30.6555 39.289C29.8613 39.7664 25.894 38.9097 24.3807 38.5818C22.498 38.1748 21.8798 38.0517 21.4402 38.1899C20.6165 38.4487 20.0661 39.5026 19.2977 44.5435C18.8335 44.4054 18.3915 44.3225 17.9728 44.2785C19.4086 42.3679 19.9368 40.4183 19.5317 38.4801C19.0601 36.2202 17.4175 34.5081 16.1221 33.4642C16.1012 31.2345 15.637 29.3578 14.7689 27.8931C18.1723 26.5264 20.2532 23.7679 20.6731 20.007C21.5166 19.5836 22.2234 19.046 22.7824 18.384C23.9386 17.0161 24.196 15.466 24.2107 14.4095C29.3922 13.1936 30.5755 10.5845 30.8143 9.11607C31.4669 9.78685 32.0186 10.5267 32.4409 11.3244C33.0997 12.5667 33.7794 14.0766 33.8385 15.8566C33.8914 17.5047 33.7424 18.6981 33.6095 19.752C33.5491 20.2293 33.4962 20.6778 33.4691 21.1162L32.1429 20.9189C31.6812 20.8524 31.2564 21.1752 31.1899 21.6437C31.1222 22.1123 31.4411 22.5482 31.9004 22.616L33.4678 22.8484C33.5085 22.8547 33.5491 22.8572 33.5898 22.8572C33.7264 23.4388 33.9801 24.0342 34.4197 24.6786C35.5746 26.3707 36.1435 27.7562 36.2876 28.3893C35.8012 28.4898 34.9602 28.6004 34.2547 28.6644V28.6657Z" fill="#00C3FF" />
    </g>
    <defs>
        <clipPath id="clip0_3599_1888">
            <rect width="38" height="52" fill="white" />
        </clipPath>
    </defs>
</svg>