  <svg
    width="50"
    height="50"
    viewBox="0 0 50 50"
    fill="none"
    xmlns="http://www.w3.org/2000/svg"
  >
    <path
      d="M17.6357 38.903C17.6675 38.9064 17.6984 38.9076 17.7279 38.9076C18.1997 38.9076 18.603 38.5499 18.6503 38.0711L18.6503 38.071C18.7004 37.561 18.3278 37.1071 17.8184 37.0569L17.8184 37.0569C16.4855 36.926 15.3221 36.7514 14.3602 36.5386L14.3601 36.5385C13.856 36.4276 13.3642 36.7449 13.254 37.2442L13.254 37.2442C13.1435 37.7449 13.4599 38.2397 13.9596 38.3503L13.9597 38.3503C14.996 38.5789 16.2328 38.7649 17.6357 38.903ZM17.6357 38.903C17.6356 38.903 17.6355 38.903 17.6353 38.9029L17.6459 38.8035L17.6361 38.903C17.636 38.903 17.6359 38.903 17.6357 38.903Z"
      fill="#00C3FF"
      stroke="#00C3FF"
      stroke-width="0.2"
    />
    <path
      d="M23.3702 38.2768C23.3835 37.7645 22.9788 37.3388 22.4666 37.326L22.4666 37.3259H22.465C21.9783 37.3134 21.5119 37.2972 21.0666 37.2784V37.2784L21.0661 37.2783C20.5659 37.2593 20.1221 37.6523 20.1001 38.1653C20.0778 38.6772 20.4752 39.1103 20.987 39.1319M23.3702 38.2768L23.2702 38.2742L23.3702 38.2768C23.3702 38.2768 23.3702 38.2768 23.3702 38.2768ZM23.3702 38.2768C23.3574 38.7808 22.9449 39.1808 22.4434 39.1808H22.4417L22.4417 39.1807L22.4202 39.1804L22.4194 39.1804V39.1804C21.9205 39.1678 21.444 39.1519 20.987 39.1319M20.987 39.1319C20.9871 39.1319 20.9871 39.1319 20.9872 39.1319L20.9914 39.032L20.987 39.1319Z"
      fill="#00C3FF"
      stroke="#00C3FF"
      stroke-width="0.2"
    />
    <path
      d="M30.9984 25.8915C30.5607 25.7072 30.3282 25.2154 30.4754 24.7542L30.4754 24.754C30.632 24.267 31.1533 23.9984 31.6413 24.1532L31.6415 24.1533C32.9064 24.5581 34.0254 25.0834 34.8761 25.6745L30.9984 25.8915ZM30.9984 25.8915L30.9979 25.8956L31.0762 25.9207C32.1734 26.2715 33.1209 26.714 33.818 27.1984L33.8181 27.1985C33.9791 27.3102 34.1639 27.3641 34.3462 27.3641C34.6395 27.3641 34.9283 27.225 35.1088 26.9654L35.1089 26.9653C35.4008 26.5447 35.2969 25.9666 34.8762 25.6746L30.9984 25.8915Z"
      fill="#00C3FF"
      stroke="#00C3FF"
      stroke-width="0.2"
    />
    <mask
      id="path-4-outside-1_3599_1883"
      maskUnits="userSpaceOnUse"
      x="0"
      y="0"
      width="50"
      height="50"
      fill="black"
    >
      <rect fill="white" width="50" height="50" />
      <path d="M47.3452 40.724H38.8764C41.0473 39.7789 42.3796 38.3288 42.3796 36.1147C42.3796 34.1022 41.1722 32.229 38.9599 30.7574C39.4639 30.1216 39.7742 29.3498 39.8248 28.4018C39.9663 25.7279 37.9051 23.3087 34.3158 21.7448C35.2594 21.3835 35.975 20.9301 36.4849 20.373C37.1799 19.613 37.4947 18.6764 37.4204 17.5873C37.2368 15.0192 34.9022 13.0573 31.1761 12.1935C33.4579 9.90209 33.2794 6.14766 33.2706 5.98876C33.2473 5.56758 32.9108 5.23137 32.49 5.20809C32.3765 5.20329 30.4339 5.11499 28.4979 5.88938C27.7675 3.22036 25.6542 1.30139 25.5525 1.21087C25.2389 0.929709 24.763 0.929709 24.4493 1.21087C24.3477 1.30139 22.2348 3.21999 21.504 5.889C19.5683 5.11387 17.6257 5.20143 17.5116 5.20845C17.0904 5.23173 16.7542 5.56831 16.7309 5.98912C16.722 6.14836 16.5425 9.9121 18.8332 12.2023C19.0393 12.4085 19.2595 12.591 19.486 12.7591C17.0834 13.5117 15.3255 14.6145 14.4702 15.969C13.9245 16.8332 13.762 17.7835 13.9984 18.7138C14.2873 19.8691 15.064 20.7063 16.1453 21.3159C12.9388 22.5684 11.0667 24.5369 10.9433 26.8719C10.8805 28.0604 11.2932 29.0816 12.1444 29.9392C8.78382 31.5219 6.9494 33.6833 6.9494 36.1147C6.9494 38.33 8.40474 39.7798 10.7183 40.7241H2.65519C1.74225 40.7241 1 41.4663 1 42.3793V44.0344C1 44.9474 1.74225 45.6896 2.65519 45.6896H4.31037V48.1724C4.31037 48.6294 4.68095 49 5.13797 49H8.44834C8.90536 49 9.27593 48.6294 9.27593 48.1724V45.6896H40.7245V48.1724C40.7245 48.6294 41.095 49 41.5521 49H44.8624C45.3195 49 45.69 48.6294 45.69 48.1724V45.6896H47.3452C48.2581 45.6896 49.0004 44.9474 49.0004 44.0344V42.3793C49.0004 41.4663 48.2581 40.7241 47.3452 40.7241L47.3452 40.724ZM29.9979 11.0319C28.7838 12.2459 26.9073 12.5566 25.8462 12.632C25.9219 11.5709 26.2327 9.69411 27.4463 8.48034C28.6612 7.2659 30.5398 6.9552 31.6002 6.8802C31.527 7.93867 31.2193 9.81073 29.9979 11.0319ZM25.0017 3.01529C25.6508 3.74572 26.6706 5.11312 26.9857 6.71506C26.7393 6.89387 26.4992 7.0871 26.276 7.31026C25.7152 7.87111 25.3036 8.52101 25.0003 9.18412C24.6969 8.52094 24.2857 7.87142 23.7245 7.31026C23.5014 7.0871 23.2616 6.89388 23.0152 6.71506C23.3311 5.12012 24.3523 3.7483 25.0014 3.01529H25.0017ZM18.4027 6.87802C19.4612 6.95118 21.3332 7.25893 22.5544 8.48034C23.7684 9.69439 24.0791 11.5709 24.1545 12.632C23.0934 12.5563 21.2166 12.2456 20.0028 11.0319C18.7888 9.81782 18.4777 7.93838 18.4027 6.87802ZM15.8697 16.8526C16.6747 15.5769 18.8664 14.4711 21.7448 13.8708C23.0213 14.2587 24.2028 14.3112 24.7426 14.3112H25.2576C25.9301 14.3112 27.5952 14.2288 29.2006 13.5198C33.061 14.0089 35.6196 15.6209 35.7685 17.7031C35.8117 18.3379 35.6513 18.8319 35.263 19.2564C34.1716 20.4501 31.2873 21.0804 26.4491 21.1831C19.6699 21.291 16.1132 20.3533 15.6024 18.3086C15.4765 17.8128 15.5637 17.3362 15.8692 16.8526L15.8697 16.8526ZM12.5955 26.9597C12.699 25.0068 14.8589 23.2732 18.3743 22.3222C18.4475 22.3023 18.5066 22.2616 18.569 22.2251C20.5737 22.7157 22.9789 22.8483 25.3058 22.8483C25.7008 22.8483 26.0931 22.8447 26.4803 22.8387C28.4067 22.7977 30.0316 22.6747 31.3994 22.466C35.7087 23.6653 38.3002 25.8934 38.1719 28.3153C38.0256 31.0756 34.1101 32.1034 25.4733 31.6456C21.1329 31.4158 17.991 30.9477 15.8685 30.2147C12.4853 29.0468 12.5685 27.4766 12.5962 26.9601L12.5955 26.9597ZM8.60427 36.1153C8.60427 34.214 10.4674 32.3893 13.7076 31.0685C14.1905 31.3271 14.7192 31.5684 15.3277 31.7786C17.6302 32.5733 20.8265 33.0562 25.3856 33.2975C26.6491 33.3648 27.9182 33.4098 29.1522 33.4098C32.5446 33.4098 35.6599 33.0614 37.6406 31.8828C39.1336 32.7784 40.7238 34.1809 40.7238 36.1146C40.7238 39.0274 36.7421 40.4753 27.9429 40.724H22.1439C13.0514 40.4687 8.60352 38.9572 8.60352 36.1146L8.60427 36.1153ZM7.62081 47.3451H5.96563V45.6899H7.62081V47.3451ZM44.0349 47.3451H42.3797V45.6899H44.0349V47.3451ZM2.65525 44.0347V42.3795H21.688C22.7956 42.4109 23.9184 42.4227 25.0383 42.4227C26.1578 42.4227 27.2683 42.4109 28.3527 42.3795H47.3448L47.3459 44.0347H2.65525Z" />
    </mask>
    <path d="M47.3452 40.724H38.8764C41.0473 39.7789 42.3796 38.3288 42.3796 36.1147C42.3796 34.1022 41.1722 32.229 38.9599 30.7574C39.4639 30.1216 39.7742 29.3498 39.8248 28.4018C39.9663 25.7279 37.9051 23.3087 34.3158 21.7448C35.2594 21.3835 35.975 20.9301 36.4849 20.373C37.1799 19.613 37.4947 18.6764 37.4204 17.5873C37.2368 15.0192 34.9022 13.0573 31.1761 12.1935C33.4579 9.90209 33.2794 6.14766 33.2706 5.98876C33.2473 5.56758 32.9108 5.23137 32.49 5.20809C32.3765 5.20329 30.4339 5.11499 28.4979 5.88938C27.7675 3.22036 25.6542 1.30139 25.5525 1.21087C25.2389 0.929709 24.763 0.929709 24.4493 1.21087C24.3477 1.30139 22.2348 3.21999 21.504 5.889C19.5683 5.11387 17.6257 5.20143 17.5116 5.20845C17.0904 5.23173 16.7542 5.56831 16.7309 5.98912C16.722 6.14836 16.5425 9.9121 18.8332 12.2023C19.0393 12.4085 19.2595 12.591 19.486 12.7591C17.0834 13.5117 15.3255 14.6145 14.4702 15.969C13.9245 16.8332 13.762 17.7835 13.9984 18.7138C14.2873 19.8691 15.064 20.7063 16.1453 21.3159C12.9388 22.5684 11.0667 24.5369 10.9433 26.8719C10.8805 28.0604 11.2932 29.0816 12.1444 29.9392C8.78382 31.5219 6.9494 33.6833 6.9494 36.1147C6.9494 38.33 8.40474 39.7798 10.7183 40.7241H2.65519C1.74225 40.7241 1 41.4663 1 42.3793V44.0344C1 44.9474 1.74225 45.6896 2.65519 45.6896H4.31037V48.1724C4.31037 48.6294 4.68095 49 5.13797 49H8.44834C8.90536 49 9.27593 48.6294 9.27593 48.1724V45.6896H40.7245V48.1724C40.7245 48.6294 41.095 49 41.5521 49H44.8624C45.3195 49 45.69 48.6294 45.69 48.1724V45.6896H47.3452C48.2581 45.6896 49.0004 44.9474 49.0004 44.0344V42.3793C49.0004 41.4663 48.2581 40.7241 47.3452 40.7241L47.3452 40.724ZM29.9979 11.0319C28.7838 12.2459 26.9073 12.5566 25.8462 12.632C25.9219 11.5709 26.2327 9.69411 27.4463 8.48034C28.6612 7.2659 30.5398 6.9552 31.6002 6.8802C31.527 7.93867 31.2193 9.81073 29.9979 11.0319ZM25.0017 3.01529C25.6508 3.74572 26.6706 5.11312 26.9857 6.71506C26.7393 6.89387 26.4992 7.0871 26.276 7.31026C25.7152 7.87111 25.3036 8.52101 25.0003 9.18412C24.6969 8.52094 24.2857 7.87142 23.7245 7.31026C23.5014 7.0871 23.2616 6.89388 23.0152 6.71506C23.3311 5.12012 24.3523 3.7483 25.0014 3.01529H25.0017ZM18.4027 6.87802C19.4612 6.95118 21.3332 7.25893 22.5544 8.48034C23.7684 9.69439 24.0791 11.5709 24.1545 12.632C23.0934 12.5563 21.2166 12.2456 20.0028 11.0319C18.7888 9.81782 18.4777 7.93838 18.4027 6.87802ZM15.8697 16.8526C16.6747 15.5769 18.8664 14.4711 21.7448 13.8708C23.0213 14.2587 24.2028 14.3112 24.7426 14.3112H25.2576C25.9301 14.3112 27.5952 14.2288 29.2006 13.5198C33.061 14.0089 35.6196 15.6209 35.7685 17.7031C35.8117 18.3379 35.6513 18.8319 35.263 19.2564C34.1716 20.4501 31.2873 21.0804 26.4491 21.1831C19.6699 21.291 16.1132 20.3533 15.6024 18.3086C15.4765 17.8128 15.5637 17.3362 15.8692 16.8526L15.8697 16.8526ZM12.5955 26.9597C12.699 25.0068 14.8589 23.2732 18.3743 22.3222C18.4475 22.3023 18.5066 22.2616 18.569 22.2251C20.5737 22.7157 22.9789 22.8483 25.3058 22.8483C25.7008 22.8483 26.0931 22.8447 26.4803 22.8387C28.4067 22.7977 30.0316 22.6747 31.3994 22.466C35.7087 23.6653 38.3002 25.8934 38.1719 28.3153C38.0256 31.0756 34.1101 32.1034 25.4733 31.6456C21.1329 31.4158 17.991 30.9477 15.8685 30.2147C12.4853 29.0468 12.5685 27.4766 12.5962 26.9601L12.5955 26.9597ZM8.60427 36.1153C8.60427 34.214 10.4674 32.3893 13.7076 31.0685C14.1905 31.3271 14.7192 31.5684 15.3277 31.7786C17.6302 32.5733 20.8265 33.0562 25.3856 33.2975C26.6491 33.3648 27.9182 33.4098 29.1522 33.4098C32.5446 33.4098 35.6599 33.0614 37.6406 31.8828C39.1336 32.7784 40.7238 34.1809 40.7238 36.1146C40.7238 39.0274 36.7421 40.4753 27.9429 40.724H22.1439C13.0514 40.4687 8.60352 38.9572 8.60352 36.1146L8.60427 36.1153ZM7.62081 47.3451H5.96563V45.6899H7.62081V47.3451ZM44.0349 47.3451H42.3797V45.6899H44.0349V47.3451ZM2.65525 44.0347V42.3795H21.688C22.7956 42.4109 23.9184 42.4227 25.0383 42.4227C26.1578 42.4227 27.2683 42.4109 28.3527 42.3795H47.3448L47.3459 44.0347H2.65525Z" fill="#00C3FF" />
    <path
      d="M47.3452 40.724H38.8764C41.0473 39.7789 42.3796 38.3288 42.3796 36.1147C42.3796 34.1022 41.1722 32.229 38.9599 30.7574C39.4639 30.1216 39.7742 29.3498 39.8248 28.4018C39.9663 25.7279 37.9051 23.3087 34.3158 21.7448C35.2594 21.3835 35.975 20.9301 36.4849 20.373C37.1799 19.613 37.4947 18.6764 37.4204 17.5873C37.2368 15.0192 34.9022 13.0573 31.1761 12.1935C33.4579 9.90209 33.2794 6.14766 33.2706 5.98876C33.2473 5.56758 32.9108 5.23137 32.49 5.20809C32.3765 5.20329 30.4339 5.11499 28.4979 5.88938C27.7675 3.22036 25.6542 1.30139 25.5525 1.21087C25.2389 0.929709 24.763 0.929709 24.4493 1.21087C24.3477 1.30139 22.2348 3.21999 21.504 5.889C19.5683 5.11387 17.6257 5.20143 17.5116 5.20845C17.0904 5.23173 16.7542 5.56831 16.7309 5.98912C16.722 6.14836 16.5425 9.9121 18.8332 12.2023C19.0393 12.4085 19.2595 12.591 19.486 12.7591C17.0834 13.5117 15.3255 14.6145 14.4702 15.969C13.9245 16.8332 13.762 17.7835 13.9984 18.7138C14.2873 19.8691 15.064 20.7063 16.1453 21.3159C12.9388 22.5684 11.0667 24.5369 10.9433 26.8719C10.8805 28.0604 11.2932 29.0816 12.1444 29.9392C8.78382 31.5219 6.9494 33.6833 6.9494 36.1147C6.9494 38.33 8.40474 39.7798 10.7183 40.7241H2.65519C1.74225 40.7241 1 41.4663 1 42.3793V44.0344C1 44.9474 1.74225 45.6896 2.65519 45.6896H4.31037V48.1724C4.31037 48.6294 4.68095 49 5.13797 49H8.44834C8.90536 49 9.27593 48.6294 9.27593 48.1724V45.6896H40.7245V48.1724C40.7245 48.6294 41.095 49 41.5521 49H44.8624C45.3195 49 45.69 48.6294 45.69 48.1724V45.6896H47.3452C48.2581 45.6896 49.0004 44.9474 49.0004 44.0344V42.3793C49.0004 41.4663 48.2581 40.7241 47.3452 40.7241L47.3452 40.724ZM29.9979 11.0319C28.7838 12.2459 26.9073 12.5566 25.8462 12.632C25.9219 11.5709 26.2327 9.69411 27.4463 8.48034C28.6612 7.2659 30.5398 6.9552 31.6002 6.8802C31.527 7.93867 31.2193 9.81073 29.9979 11.0319ZM25.0017 3.01529C25.6508 3.74572 26.6706 5.11312 26.9857 6.71506C26.7393 6.89387 26.4992 7.0871 26.276 7.31026C25.7152 7.87111 25.3036 8.52101 25.0003 9.18412C24.6969 8.52094 24.2857 7.87142 23.7245 7.31026C23.5014 7.0871 23.2616 6.89388 23.0152 6.71506C23.3311 5.12012 24.3523 3.7483 25.0014 3.01529H25.0017ZM18.4027 6.87802C19.4612 6.95118 21.3332 7.25893 22.5544 8.48034C23.7684 9.69439 24.0791 11.5709 24.1545 12.632C23.0934 12.5563 21.2166 12.2456 20.0028 11.0319C18.7888 9.81782 18.4777 7.93838 18.4027 6.87802ZM15.8697 16.8526C16.6747 15.5769 18.8664 14.4711 21.7448 13.8708C23.0213 14.2587 24.2028 14.3112 24.7426 14.3112H25.2576C25.9301 14.3112 27.5952 14.2288 29.2006 13.5198C33.061 14.0089 35.6196 15.6209 35.7685 17.7031C35.8117 18.3379 35.6513 18.8319 35.263 19.2564C34.1716 20.4501 31.2873 21.0804 26.4491 21.1831C19.6699 21.291 16.1132 20.3533 15.6024 18.3086C15.4765 17.8128 15.5637 17.3362 15.8692 16.8526L15.8697 16.8526ZM12.5955 26.9597C12.699 25.0068 14.8589 23.2732 18.3743 22.3222C18.4475 22.3023 18.5066 22.2616 18.569 22.2251C20.5737 22.7157 22.9789 22.8483 25.3058 22.8483C25.7008 22.8483 26.0931 22.8447 26.4803 22.8387C28.4067 22.7977 30.0316 22.6747 31.3994 22.466C35.7087 23.6653 38.3002 25.8934 38.1719 28.3153C38.0256 31.0756 34.1101 32.1034 25.4733 31.6456C21.1329 31.4158 17.991 30.9477 15.8685 30.2147C12.4853 29.0468 12.5685 27.4766 12.5962 26.9601L12.5955 26.9597ZM8.60427 36.1153C8.60427 34.214 10.4674 32.3893 13.7076 31.0685C14.1905 31.3271 14.7192 31.5684 15.3277 31.7786C17.6302 32.5733 20.8265 33.0562 25.3856 33.2975C26.6491 33.3648 27.9182 33.4098 29.1522 33.4098C32.5446 33.4098 35.6599 33.0614 37.6406 31.8828C39.1336 32.7784 40.7238 34.1809 40.7238 36.1146C40.7238 39.0274 36.7421 40.4753 27.9429 40.724H22.1439C13.0514 40.4687 8.60352 38.9572 8.60352 36.1146L8.60427 36.1153ZM7.62081 47.3451H5.96563V45.6899H7.62081V47.3451ZM44.0349 47.3451H42.3797V45.6899H44.0349V47.3451ZM2.65525 44.0347V42.3795H21.688C22.7956 42.4109 23.9184 42.4227 25.0383 42.4227C26.1578 42.4227 27.2683 42.4109 28.3527 42.3795H47.3448L47.3459 44.0347H2.65525Z"
      stroke="#00C3FF"
      stroke-width="0.4"
      mask="url(#path-4-outside-1_3599_1883)"
    />
  </svg>